<?xml version="1.0" encoding="utf-8" standalone="no"?>
<!DOCTYPE svg PUBLIC "-//W3C//DTD SVG 1.1//EN"
  "http://www.w3.org/Graphics/SVG/1.1/DTD/svg11.dtd">
<svg xmlns:xlink="http://www.w3.org/1999/xlink" width="460.8pt" height="345.6pt" viewBox="0 0 460.8 345.6" xmlns="http://www.w3.org/2000/svg" version="1.1">
 <metadata>
  <rdf:RDF xmlns:dc="http://purl.org/dc/elements/1.1/" xmlns:cc="http://creativecommons.org/ns#" xmlns:rdf="http://www.w3.org/1999/02/22-rdf-syntax-ns#">
   <cc:Work>
    <dc:type rdf:resource="http://purl.org/dc/dcmitype/StillImage"/>
    <dc:date>2024-04-12T06:56:54.371939</dc:date>
    <dc:format>image/svg+xml</dc:format>
    <dc:creator>
     <cc:Agent>
      <dc:title>Matplotlib v3.8.3, https://matplotlib.org/</dc:title>
     </cc:Agent>
    </dc:creator>
   </cc:Work>
  </rdf:RDF>
 </metadata>
 <defs>
  <style type="text/css">*{stroke-linejoin: round; stroke-linecap: butt}</style>
 </defs>
 <g id="figure_1">
  <g id="patch_1">
   <path d="M 0 345.6 
L 460.8 345.6 
L 460.8 0 
L 0 0 
z
" style="fill: #ffffff"/>
  </g>
  <g id="patch_2">
   <path d="M 76.44 334.8 
L 384.36 334.8 
L 384.36 26.88 
L 76.44 26.88 
z
" style="fill: #ffffff"/>
  </g>
  <g id="pane3d_1">
   <g id="patch_3">
    <path d="M 99.690083 258.876796 
L 201.375324 173.642211 
L 199.961801 50.718703 
L 93.410398 128.475064 
" style="fill: #f2f2f2; opacity: 0.5; stroke: #f2f2f2; stroke-linejoin: miter"/>
   </g>
  </g>
  <g id="pane3d_2">
   <g id="patch_4">
    <path d="M 201.375324 173.642211 
L 364.543853 221.068861 
L 370.366762 93.911394 
L 199.961801 50.718703 
" style="fill: #e6e6e6; opacity: 0.5; stroke: #e6e6e6; stroke-linejoin: miter"/>
   </g>
  </g>
  <g id="pane3d_3">
   <g id="patch_5">
    <path d="M 99.690083 258.876796 
L 272.656694 315.367691 
L 364.543853 221.068861 
L 201.375324 173.642211 
" style="fill: #ececec; opacity: 0.5; stroke: #ececec; stroke-linejoin: miter"/>
   </g>
  </g>
  <g id="grid3d_1">
   <g id="Line3DCollection_1">
    <path d="M 115.485043 264.03543 
L 216.335428 177.990523 
L 215.555445 54.671237 
" style="fill: none; stroke: #b0b0b0; stroke-width: 0.8"/>
    <path d="M 136.553955 270.916536 
L 236.271925 183.785276 
L 236.345602 59.940936 
" style="fill: none; stroke: #b0b0b0; stroke-width: 0.8"/>
    <path d="M 157.901285 277.888574 
L 256.44999 189.650242 
L 257.398587 65.277254 
" style="fill: none; stroke: #b0b0b0; stroke-width: 0.8"/>
    <path d="M 179.53259 284.953358 
L 276.87404 195.586707 
L 278.719416 70.681463 
" style="fill: none; stroke: #b0b0b0; stroke-width: 0.8"/>
    <path d="M 201.453573 292.112751 
L 297.5486 201.595986 
L 300.313234 76.154866 
" style="fill: none; stroke: #b0b0b0; stroke-width: 0.8"/>
    <path d="M 223.670092 299.368666 
L 318.478309 207.679426 
L 322.185317 81.698802 
" style="fill: none; stroke: #b0b0b0; stroke-width: 0.8"/>
    <path d="M 246.188164 306.723069 
L 339.667919 213.838409 
L 344.341079 87.314642 
" style="fill: none; stroke: #b0b0b0; stroke-width: 0.8"/>
    <path d="M 269.013971 314.177977 
L 361.122301 220.074351 
L 366.786074 93.003794 
" style="fill: none; stroke: #b0b0b0; stroke-width: 0.8"/>
   </g>
  </g>
  <g id="grid3d_2">
   <g id="Line3DCollection_2">
    <path d="M 103.118245 121.39072 
L 108.922653 251.137874 
L 281.033191 306.771344 
" style="fill: none; stroke: #b0b0b0; stroke-width: 0.8"/>
    <path d="M 117.624771 110.804518 
L 122.730859 239.563561 
L 293.548511 293.927547 
" style="fill: none; stroke: #b0b0b0; stroke-width: 0.8"/>
    <path d="M 131.796088 100.462936 
L 136.233771 228.245152 
L 305.7726 281.382624 
" style="fill: none; stroke: #b0b0b0; stroke-width: 0.8"/>
    <path d="M 145.643682 90.357593 
L 149.441404 217.174253 
L 317.715507 269.126263 
" style="fill: none; stroke: #b0b0b0; stroke-width: 0.8"/>
    <path d="M 159.17852 80.480485 
L 162.363338 206.342832 
L 329.386824 257.148621 
" style="fill: none; stroke: #b0b0b0; stroke-width: 0.8"/>
    <path d="M 172.41108 70.823965 
L 175.008743 195.743202 
L 340.79571 245.440298 
" style="fill: none; stroke: #b0b0b0; stroke-width: 0.8"/>
    <path d="M 185.351376 61.380726 
L 187.386403 185.368002 
L 351.950918 233.99231 
" style="fill: none; stroke: #b0b0b0; stroke-width: 0.8"/>
    <path d="M 198.008985 52.14378 
L 199.504732 175.210178 
L 362.860816 222.796071 
" style="fill: none; stroke: #b0b0b0; stroke-width: 0.8"/>
   </g>
  </g>
  <g id="grid3d_3">
   <g id="Line3DCollection_3">
    <path d="M 365.013697 210.808657 
L 201.261047 163.704375 
L 99.184167 248.371114 
" style="fill: none; stroke: #b0b0b0; stroke-width: 0.8"/>
    <path d="M 365.736219 195.030639 
L 201.085389 148.428701 
L 98.405906 232.210028 
" style="fill: none; stroke: #b0b0b0; stroke-width: 0.8"/>
    <path d="M 366.466788 179.076873 
L 200.907867 132.991013 
L 97.618646 215.862052 
" style="fill: none; stroke: #b0b0b0; stroke-width: 0.8"/>
    <path d="M 367.20554 162.944405 
L 200.728454 117.388721 
L 96.822228 199.323927 
" style="fill: none; stroke: #b0b0b0; stroke-width: 0.8"/>
    <path d="M 367.952614 146.630217 
L 200.547116 101.619178 
L 96.016493 182.592314 
" style="fill: none; stroke: #b0b0b0; stroke-width: 0.8"/>
    <path d="M 368.708151 130.131219 
L 200.363825 85.67968 
L 95.201276 165.663799 
" style="fill: none; stroke: #b0b0b0; stroke-width: 0.8"/>
    <path d="M 369.472296 113.444254 
L 200.178547 69.567464 
L 94.376408 148.534885 
" style="fill: none; stroke: #b0b0b0; stroke-width: 0.8"/>
    <path d="M 370.245196 96.566091 
L 199.991251 53.279709 
L 93.541717 131.201991 
" style="fill: none; stroke: #b0b0b0; stroke-width: 0.8"/>
   </g>
  </g>
  <g id="axis3d_1">
   <g id="line2d_1">
    <path d="M 99.690083 258.876796 
L 272.656694 315.367691 
" style="fill: none; stroke: #000000; stroke-width: 0.8; stroke-linecap: square"/>
   </g>
   <g id="xtick_1">
    <g id="line2d_2">
     <path d="M 116.36336 263.286054 
L 113.724632 265.537401 
" style="fill: none; stroke: #000000; stroke-width: 0.8; stroke-linecap: square"/>
    </g>
    <g id="text_1">
     <!-- −7.5 -->
     <g transform="translate(95.822961 287.36839) scale(0.1 -0.1)">
      <defs>
       <path id="DejaVuSans-2212" d="M 678 2272 
L 4684 2272 
L 4684 1741 
L 678 1741 
L 678 2272 
z
" transform="scale(0.015625)"/>
       <path id="DejaVuSans-37" d="M 525 4666 
L 3525 4666 
L 3525 4397 
L 1831 0 
L 1172 0 
L 2766 4134 
L 525 4134 
L 525 4666 
z
" transform="scale(0.015625)"/>
       <path id="DejaVuSans-2e" d="M 684 794 
L 1344 794 
L 1344 0 
L 684 0 
L 684 794 
z
" transform="scale(0.015625)"/>
       <path id="DejaVuSans-35" d="M 691 4666 
L 3169 4666 
L 3169 4134 
L 1269 4134 
L 1269 2991 
Q 1406 3038 1543 3061 
Q 1681 3084 1819 3084 
Q 2600 3084 3056 2656 
Q 3513 2228 3513 1497 
Q 3513 744 3044 326 
Q 2575 -91 1722 -91 
Q 1428 -91 1123 -41 
Q 819 9 494 109 
L 494 744 
Q 775 591 1075 516 
Q 1375 441 1709 441 
Q 2250 441 2565 725 
Q 2881 1009 2881 1497 
Q 2881 1984 2565 2268 
Q 2250 2553 1709 2553 
Q 1456 2553 1204 2497 
Q 953 2441 691 2322 
L 691 4666 
z
" transform="scale(0.015625)"/>
      </defs>
      <use xlink:href="#DejaVuSans-2212"/>
      <use xlink:href="#DejaVuSans-37" x="83.789062"/>
      <use xlink:href="#DejaVuSans-2e" x="147.412109"/>
      <use xlink:href="#DejaVuSans-35" x="179.199219"/>
     </g>
    </g>
   </g>
   <g id="xtick_2">
    <g id="line2d_3">
     <path d="M 137.422874 270.157295 
L 134.812357 272.438305 
" style="fill: none; stroke: #000000; stroke-width: 0.8; stroke-linecap: square"/>
    </g>
    <g id="text_2">
     <!-- −5.0 -->
     <g transform="translate(116.910558 294.375389) scale(0.1 -0.1)">
      <defs>
       <path id="DejaVuSans-30" d="M 2034 4250 
Q 1547 4250 1301 3770 
Q 1056 3291 1056 2328 
Q 1056 1369 1301 889 
Q 1547 409 2034 409 
Q 2525 409 2770 889 
Q 3016 1369 3016 2328 
Q 3016 3291 2770 3770 
Q 2525 4250 2034 4250 
z
M 2034 4750 
Q 2819 4750 3233 4129 
Q 3647 3509 3647 2328 
Q 3647 1150 3233 529 
Q 2819 -91 2034 -91 
Q 1250 -91 836 529 
Q 422 1150 422 2328 
Q 422 3509 836 4129 
Q 1250 4750 2034 4750 
z
" transform="scale(0.015625)"/>
      </defs>
      <use xlink:href="#DejaVuSans-2212"/>
      <use xlink:href="#DejaVuSans-35" x="83.789062"/>
      <use xlink:href="#DejaVuSans-2e" x="147.412109"/>
      <use xlink:href="#DejaVuSans-30" x="179.199219"/>
     </g>
    </g>
   </g>
   <g id="xtick_3">
    <g id="line2d_4">
     <path d="M 158.760481 277.11927 
L 156.179153 279.430533 
" style="fill: none; stroke: #000000; stroke-width: 0.8; stroke-linecap: square"/>
    </g>
    <g id="text_3">
     <!-- −2.5 -->
     <g transform="translate(138.277728 301.475285) scale(0.1 -0.1)">
      <defs>
       <path id="DejaVuSans-32" d="M 1228 531 
L 3431 531 
L 3431 0 
L 469 0 
L 469 531 
Q 828 903 1448 1529 
Q 2069 2156 2228 2338 
Q 2531 2678 2651 2914 
Q 2772 3150 2772 3378 
Q 2772 3750 2511 3984 
Q 2250 4219 1831 4219 
Q 1534 4219 1204 4116 
Q 875 4013 500 3803 
L 500 4441 
Q 881 4594 1212 4672 
Q 1544 4750 1819 4750 
Q 2544 4750 2975 4387 
Q 3406 4025 3406 3419 
Q 3406 3131 3298 2873 
Q 3191 2616 2906 2266 
Q 2828 2175 2409 1742 
Q 1991 1309 1228 531 
z
" transform="scale(0.015625)"/>
      </defs>
      <use xlink:href="#DejaVuSans-2212"/>
      <use xlink:href="#DejaVuSans-32" x="83.789062"/>
      <use xlink:href="#DejaVuSans-2e" x="147.412109"/>
      <use xlink:href="#DejaVuSans-35" x="179.199219"/>
     </g>
    </g>
   </g>
   <g id="xtick_4">
    <g id="line2d_5">
     <path d="M 180.381724 284.17379 
L 177.830598 286.515913 
" style="fill: none; stroke: #000000; stroke-width: 0.8; stroke-linecap: square"/>
    </g>
    <g id="text_4">
     <!-- 0.0 -->
     <g transform="translate(164.119912 308.669937) scale(0.1 -0.1)">
      <use xlink:href="#DejaVuSans-30"/>
      <use xlink:href="#DejaVuSans-2e" x="63.623047"/>
      <use xlink:href="#DejaVuSans-30" x="95.410156"/>
     </g>
    </g>
   </g>
   <g id="xtick_5">
    <g id="line2d_6">
     <path d="M 202.292299 291.322712 
L 199.772418 293.696316 
" style="fill: none; stroke: #000000; stroke-width: 0.8; stroke-linecap: square"/>
    </g>
    <g id="text_5">
     <!-- 2.5 -->
     <g transform="translate(186.06317 315.961256) scale(0.1 -0.1)">
      <use xlink:href="#DejaVuSans-32"/>
      <use xlink:href="#DejaVuSans-2e" x="63.623047"/>
      <use xlink:href="#DejaVuSans-35" x="95.410156"/>
     </g>
    </g>
   </g>
   <g id="xtick_6">
    <g id="line2d_7">
     <path d="M 224.498052 298.567944 
L 222.010492 300.973669 
" style="fill: none; stroke: #000000; stroke-width: 0.8; stroke-linecap: square"/>
    </g>
    <g id="text_6">
     <!-- 5.0 -->
     <g transform="translate(208.303248 323.351202) scale(0.1 -0.1)">
      <use xlink:href="#DejaVuSans-35"/>
      <use xlink:href="#DejaVuSans-2e" x="63.623047"/>
      <use xlink:href="#DejaVuSans-30" x="95.410156"/>
     </g>
    </g>
   </g>
   <g id="xtick_7">
    <g id="line2d_8">
     <path d="M 247.004987 305.911445 
L 244.550863 308.349947 
" style="fill: none; stroke: #000000; stroke-width: 0.8; stroke-linecap: square"/>
    </g>
    <g id="text_7">
     <!-- 7.5 -->
     <g transform="translate(230.84621 330.841791) scale(0.1 -0.1)">
      <use xlink:href="#DejaVuSans-37"/>
      <use xlink:href="#DejaVuSans-2e" x="63.623047"/>
      <use xlink:href="#DejaVuSans-35" x="95.410156"/>
     </g>
    </g>
   </g>
   <g id="xtick_8">
    <g id="line2d_9">
     <path d="M 269.819275 313.355228 
L 267.399736 315.827181 
" style="fill: none; stroke: #000000; stroke-width: 0.8; stroke-linecap: square"/>
    </g>
    <g id="text_8">
     <!-- 10.0 -->
     <g transform="translate(250.517036 338.435092) scale(0.1 -0.1)">
      <defs>
       <path id="DejaVuSans-31" d="M 794 531 
L 1825 531 
L 1825 4091 
L 703 3866 
L 703 4441 
L 1819 4666 
L 2450 4666 
L 2450 531 
L 3481 531 
L 3481 0 
L 794 0 
L 794 531 
z
" transform="scale(0.015625)"/>
      </defs>
      <use xlink:href="#DejaVuSans-31"/>
      <use xlink:href="#DejaVuSans-30" x="63.623047"/>
      <use xlink:href="#DejaVuSans-2e" x="127.246094"/>
      <use xlink:href="#DejaVuSans-30" x="159.033203"/>
     </g>
    </g>
   </g>
   <g id="text_9">
    <!-- X -->
    <g transform="translate(164.195323 324.369287) scale(0.1 -0.1)">
     <defs>
      <path id="DejaVuSans-58" d="M 403 4666 
L 1081 4666 
L 2241 2931 
L 3406 4666 
L 4084 4666 
L 2584 2425 
L 4184 0 
L 3506 0 
L 2194 1984 
L 872 0 
L 191 0 
L 1856 2491 
L 403 4666 
z
" transform="scale(0.015625)"/>
     </defs>
     <use xlink:href="#DejaVuSans-58"/>
    </g>
   </g>
  </g>
  <g id="axis3d_2">
   <g id="line2d_10">
    <path d="M 364.543853 221.068861 
L 272.656694 315.367691 
" style="fill: none; stroke: #000000; stroke-width: 0.8; stroke-linecap: square"/>
   </g>
   <g id="xtick_9">
    <g id="line2d_11">
     <path d="M 279.58295 306.302564 
L 283.937417 307.710114 
" style="fill: none; stroke: #000000; stroke-width: 0.8; stroke-linecap: square"/>
    </g>
    <g id="text_10">
     <!-- −4 -->
     <g transform="translate(286.518306 327.765463) scale(0.1 -0.1)">
      <defs>
       <path id="DejaVuSans-34" d="M 2419 4116 
L 825 1625 
L 2419 1625 
L 2419 4116 
z
M 2253 4666 
L 3047 4666 
L 3047 1625 
L 3713 1625 
L 3713 1100 
L 3047 1100 
L 3047 0 
L 2419 0 
L 2419 1100 
L 313 1100 
L 313 1709 
L 2253 4666 
z
" transform="scale(0.015625)"/>
      </defs>
      <use xlink:href="#DejaVuSans-2212"/>
      <use xlink:href="#DejaVuSans-34" x="83.789062"/>
     </g>
    </g>
   </g>
   <g id="xtick_10">
    <g id="line2d_12">
     <path d="M 292.11002 293.469736 
L 296.429161 294.844335 
" style="fill: none; stroke: #000000; stroke-width: 0.8; stroke-linecap: square"/>
    </g>
    <g id="text_11">
     <!-- −2 -->
     <g transform="translate(298.888594 314.757337) scale(0.1 -0.1)">
      <use xlink:href="#DejaVuSans-2212"/>
      <use xlink:href="#DejaVuSans-32" x="83.789062"/>
     </g>
    </g>
   </g>
   <g id="xtick_11">
    <g id="line2d_13">
     <path d="M 304.345709 280.935403 
L 308.629979 282.278194 
" style="fill: none; stroke: #000000; stroke-width: 0.8; stroke-linecap: square"/>
    </g>
    <g id="text_12">
     <!-- 0 -->
     <g transform="translate(315.160724 302.052063) scale(0.1 -0.1)">
      <use xlink:href="#DejaVuSans-30"/>
     </g>
    </g>
   </g>
   <g id="xtick_12">
    <g id="line2d_14">
     <path d="M 316.300066 268.689268 
L 320.549917 270.001343 
" style="fill: none; stroke: #000000; stroke-width: 0.8; stroke-linecap: square"/>
    </g>
    <g id="text_13">
     <!-- 2 -->
     <g transform="translate(326.964952 289.639184) scale(0.1 -0.1)">
      <use xlink:href="#DejaVuSans-32"/>
     </g>
    </g>
   </g>
   <g id="xtick_13">
    <g id="line2d_15">
     <path d="M 327.982683 256.721505 
L 332.198564 258.003906 
" style="fill: none; stroke: #000000; stroke-width: 0.8; stroke-linecap: square"/>
    </g>
    <g id="text_14">
     <!-- 4 -->
     <g transform="translate(338.50061 277.508723) scale(0.1 -0.1)">
      <use xlink:href="#DejaVuSans-34"/>
     </g>
    </g>
   </g>
   <g id="xtick_14">
    <g id="line2d_16">
     <path d="M 339.402723 245.022729 
L 343.585077 246.276452 
" style="fill: none; stroke: #000000; stroke-width: 0.8; stroke-linecap: square"/>
    </g>
    <g id="text_15">
     <!-- 6 -->
     <g transform="translate(349.776762 265.651149) scale(0.1 -0.1)">
      <defs>
       <path id="DejaVuSans-36" d="M 2113 2584 
Q 1688 2584 1439 2293 
Q 1191 2003 1191 1497 
Q 1191 994 1439 701 
Q 1688 409 2113 409 
Q 2538 409 2786 701 
Q 3034 994 3034 1497 
Q 3034 2003 2786 2293 
Q 2538 2584 2113 2584 
z
M 3366 4563 
L 3366 3988 
Q 3128 4100 2886 4159 
Q 2644 4219 2406 4219 
Q 1781 4219 1451 3797 
Q 1122 3375 1075 2522 
Q 1259 2794 1537 2939 
Q 1816 3084 2150 3084 
Q 2853 3084 3261 2657 
Q 3669 2231 3669 1497 
Q 3669 778 3244 343 
Q 2819 -91 2113 -91 
Q 1303 -91 875 529 
Q 447 1150 447 2328 
Q 447 3434 972 4092 
Q 1497 4750 2381 4750 
Q 2619 4750 2861 4703 
Q 3103 4656 3366 4563 
z
" transform="scale(0.015625)"/>
      </defs>
      <use xlink:href="#DejaVuSans-36"/>
     </g>
    </g>
   </g>
   <g id="xtick_15">
    <g id="line2d_17">
     <path d="M 350.568938 233.583973 
L 354.718207 234.809968 
" style="fill: none; stroke: #000000; stroke-width: 0.8; stroke-linecap: square"/>
    </g>
    <g id="text_16">
     <!-- 8 -->
     <g transform="translate(360.802067 254.057357) scale(0.1 -0.1)">
      <defs>
       <path id="DejaVuSans-38" d="M 2034 2216 
Q 1584 2216 1326 1975 
Q 1069 1734 1069 1313 
Q 1069 891 1326 650 
Q 1584 409 2034 409 
Q 2484 409 2743 651 
Q 3003 894 3003 1313 
Q 3003 1734 2745 1975 
Q 2488 2216 2034 2216 
z
M 1403 2484 
Q 997 2584 770 2862 
Q 544 3141 544 3541 
Q 544 4100 942 4425 
Q 1341 4750 2034 4750 
Q 2731 4750 3128 4425 
Q 3525 4100 3525 3541 
Q 3525 3141 3298 2862 
Q 3072 2584 2669 2484 
Q 3125 2378 3379 2068 
Q 3634 1759 3634 1313 
Q 3634 634 3220 271 
Q 2806 -91 2034 -91 
Q 1263 -91 848 271 
Q 434 634 434 1313 
Q 434 1759 690 2068 
Q 947 2378 1403 2484 
z
M 1172 3481 
Q 1172 3119 1398 2916 
Q 1625 2713 2034 2713 
Q 2441 2713 2670 2916 
Q 2900 3119 2900 3481 
Q 2900 3844 2670 4047 
Q 2441 4250 2034 4250 
Q 1625 4250 1398 4047 
Q 1172 3844 1172 3481 
z
" transform="scale(0.015625)"/>
      </defs>
      <use xlink:href="#DejaVuSans-38"/>
     </g>
    </g>
   </g>
   <g id="xtick_16">
    <g id="line2d_18">
     <path d="M 361.489698 222.396662 
L 365.606318 223.59584 
" style="fill: none; stroke: #000000; stroke-width: 0.8; stroke-linecap: square"/>
    </g>
    <g id="text_17">
     <!-- 10 -->
     <g transform="translate(368.403552 242.718641) scale(0.1 -0.1)">
      <use xlink:href="#DejaVuSans-31"/>
      <use xlink:href="#DejaVuSans-30" x="63.623047"/>
     </g>
    </g>
   </g>
   <g id="text_18">
    <!-- Y -->
    <g transform="translate(344.569179 296.872987) scale(0.1 -0.1)">
     <defs>
      <path id="DejaVuSans-59" d="M -13 4666 
L 666 4666 
L 1959 2747 
L 3244 4666 
L 3922 4666 
L 2272 2222 
L 2272 0 
L 1638 0 
L 1638 2222 
L -13 4666 
z
" transform="scale(0.015625)"/>
     </defs>
     <use xlink:href="#DejaVuSans-59"/>
    </g>
   </g>
  </g>
  <g id="axis3d_3">
   <g id="line2d_19">
    <path d="M 364.543853 221.068861 
L 370.366762 93.911394 
" style="fill: none; stroke: #000000; stroke-width: 0.8; stroke-linecap: square"/>
   </g>
   <g id="xtick_17">
    <g id="line2d_20">
     <path d="M 363.639129 210.413255 
L 367.766115 211.600403 
" style="fill: none; stroke: #000000; stroke-width: 0.8; stroke-linecap: square"/>
    </g>
    <g id="text_19">
     <!-- −4 -->
     <g transform="translate(375.96327 215.818333) scale(0.1 -0.1)">
      <use xlink:href="#DejaVuSans-2212"/>
      <use xlink:href="#DejaVuSans-34" x="83.789062"/>
     </g>
    </g>
   </g>
   <g id="xtick_18">
    <g id="line2d_21">
     <path d="M 364.353752 194.639353 
L 368.504471 195.814151 
" style="fill: none; stroke: #000000; stroke-width: 0.8; stroke-linecap: square"/>
    </g>
    <g id="text_20">
     <!-- −2 -->
     <g transform="translate(376.785106 200.067289) scale(0.1 -0.1)">
      <use xlink:href="#DejaVuSans-2212"/>
      <use xlink:href="#DejaVuSans-32" x="83.789062"/>
     </g>
    </g>
   </g>
   <g id="xtick_19">
    <g id="line2d_22">
     <path d="M 365.076331 178.689818 
L 369.251058 179.851917 
" style="fill: none; stroke: #000000; stroke-width: 0.8; stroke-linecap: square"/>
    </g>
    <g id="text_21">
     <!-- 0 -->
     <g transform="translate(381.805916 184.141258) scale(0.1 -0.1)">
      <use xlink:href="#DejaVuSans-30"/>
     </g>
    </g>
   </g>
   <g id="xtick_20">
    <g id="line2d_23">
     <path d="M 365.807001 162.561702 
L 370.006014 163.710742 
" style="fill: none; stroke: #000000; stroke-width: 0.8; stroke-linecap: square"/>
    </g>
    <g id="text_22">
     <!-- 2 -->
     <g transform="translate(382.646166 168.037308) scale(0.1 -0.1)">
      <use xlink:href="#DejaVuSans-32"/>
     </g>
    </g>
   </g>
   <g id="xtick_21">
    <g id="line2d_24">
     <path d="M 366.545898 146.251987 
L 370.769481 147.3876 
" style="fill: none; stroke: #000000; stroke-width: 0.8; stroke-linecap: square"/>
    </g>
    <g id="text_23">
     <!-- 4 -->
     <g transform="translate(383.495855 151.75244) scale(0.1 -0.1)">
      <use xlink:href="#DejaVuSans-34"/>
     </g>
    </g>
   </g>
   <g id="xtick_22">
    <g id="line2d_25">
     <path d="M 367.293161 129.757589 
L 371.541605 130.879396 
" style="fill: none; stroke: #000000; stroke-width: 0.8; stroke-linecap: square"/>
    </g>
    <g id="text_24">
     <!-- 6 -->
     <g transform="translate(384.355144 135.28359) scale(0.1 -0.1)">
      <use xlink:href="#DejaVuSans-36"/>
     </g>
    </g>
   </g>
   <g id="xtick_23">
    <g id="line2d_26">
     <path d="M 368.048935 113.075354 
L 372.322532 114.182965 
" style="fill: none; stroke: #000000; stroke-width: 0.8; stroke-linecap: square"/>
    </g>
    <g id="text_25">
     <!-- 8 -->
     <g transform="translate(385.224196 118.62762) scale(0.1 -0.1)">
      <use xlink:href="#DejaVuSans-38"/>
     </g>
    </g>
   </g>
   <g id="xtick_24">
    <g id="line2d_27">
     <path d="M 368.813365 96.202054 
L 373.112414 97.29507 
" style="fill: none; stroke: #000000; stroke-width: 0.8; stroke-linecap: square"/>
    </g>
    <g id="text_26">
     <!-- 10 -->
     <g transform="translate(382.921928 101.781324) scale(0.1 -0.1)">
      <use xlink:href="#DejaVuSans-31"/>
      <use xlink:href="#DejaVuSans-30" x="63.623047"/>
     </g>
    </g>
   </g>
   <g id="text_27">
    <!-- Z -->
    <g transform="translate(404.378739 156.228179) scale(0.1 -0.1)">
     <defs>
      <path id="DejaVuSans-5a" d="M 359 4666 
L 4025 4666 
L 4025 4184 
L 1075 531 
L 4097 531 
L 4097 0 
L 288 0 
L 288 481 
L 3238 4134 
L 359 4134 
L 359 4666 
z
" transform="scale(0.015625)"/>
     </defs>
     <use xlink:href="#DejaVuSans-5a"/>
    </g>
   </g>
  </g>
  <g id="axes_1">
   <g id="line2d_28">
    <path d="M 138.040138 187.038986 
L 303.268214 236.690086 
" clip-path="url(#pd39c24dfe2)" style="fill: none; stroke: #000000; stroke-width: 1.5; stroke-linecap: square"/>
   </g>
   <g id="line2d_29">
    <path d="M 180.82142 239.360497 
L 275.672046 155.90139 
" clip-path="url(#pd39c24dfe2)" style="fill: none; stroke: #000000; stroke-width: 1.5; stroke-linecap: square"/>
   </g>
   <g id="line2d_30">
    <path d="M 214.543237 250.309684 
L 213.654755 125.622487 
" clip-path="url(#pd39c24dfe2)" style="fill: none; stroke: #000000; stroke-width: 1.5; stroke-linecap: square"/>
   </g>
   <g id="line2d_31">
    <path d="M 254.861417 110.292166 
L 312.477311 164.952743 
" clip-path="url(#pd39c24dfe2)" style="fill: none; stroke-dasharray: 5.55,2.4; stroke-dashoffset: 0; stroke: #1f77b4; stroke-width: 1.5"/>
   </g>
   <g id="line2d_32">
    <path d="M 254.861417 110.292166 
L 301.273028 185.949328 
" clip-path="url(#pd39c24dfe2)" style="fill: none; stroke-dasharray: 5.55,2.4; stroke-dashoffset: 0; stroke: #ff7f0e; stroke-width: 1.5"/>
   </g>
   <g id="line2d_33">
    <path d="M 301.273028 185.949328 
L 312.477311 164.952743 
" clip-path="url(#pd39c24dfe2)" style="fill: none; stroke-dasharray: 5.55,2.4; stroke-dashoffset: 0; stroke: #2ca02c; stroke-width: 1.5"/>
   </g>
   <g id="Line3DCollection_4">
    <path d="M 254.861417 110.292166 
L 214.255588 209.941758 
" clip-path="url(#pd39c24dfe2)" style="fill: none; stroke: #0000ff; stroke-width: 1.5"/>
    <path d="M 312.477311 164.952743 
L 214.255588 209.941758 
" clip-path="url(#pd39c24dfe2)" style="fill: none; stroke: #0000ff; stroke-width: 1.5"/>
    <path d="M 301.273028 185.949328 
L 214.255588 209.941758 
" clip-path="url(#pd39c24dfe2)" style="fill: none; stroke: #0000ff; stroke-width: 1.5"/>
    <path d="M 172.026849 135.890042 
L 214.255588 209.941758 
" clip-path="url(#pd39c24dfe2)" style="fill: none; stroke: #0000ff; stroke-width: 1.5"/>
    <path d="M 230.659283 188.05153 
L 214.255588 209.941758 
" clip-path="url(#pd39c24dfe2)" style="fill: none; stroke: #0000ff; stroke-width: 1.5"/>
    <path d="M 150.888109 154.910772 
L 214.255588 209.941758 
" clip-path="url(#pd39c24dfe2)" style="fill: none; stroke: #0000ff; stroke-width: 1.5"/>
    <path d="M 289.681591 153.515942 
L 214.255588 209.941758 
" clip-path="url(#pd39c24dfe2)" style="fill: none; stroke: #0000ff; stroke-width: 1.5"/>
    <path d="M 277.68454 147.496922 
L 214.255588 209.941758 
" clip-path="url(#pd39c24dfe2)" style="fill: none; stroke: #0000ff; stroke-width: 1.5"/>
    <path d="M 284.171708 138.099031 
L 214.255588 209.941758 
" clip-path="url(#pd39c24dfe2)" style="fill: none; stroke: #0000ff; stroke-width: 1.5"/>
    <path d="M 307.065187 175.094947 
L 214.255588 209.941758 
" clip-path="url(#pd39c24dfe2)" style="fill: none; stroke: #0000ff; stroke-width: 1.5"/>
    <path d="M 254.861417 110.292166 
L 252.76627 119.951357 
" clip-path="url(#pd39c24dfe2)" style="fill: none; stroke: #0000ff; stroke-width: 1.5"/>
    <path d="M 254.861417 110.292166 
L 249.10817 119.879267 
" clip-path="url(#pd39c24dfe2)" style="fill: none; stroke: #0000ff; stroke-width: 1.5"/>
    <path d="M 312.477311 164.952743 
L 303.475077 171.215202 
" clip-path="url(#pd39c24dfe2)" style="fill: none; stroke: #0000ff; stroke-width: 1.5"/>
    <path d="M 312.477311 164.952743 
L 303.098026 167.10609 
" clip-path="url(#pd39c24dfe2)" style="fill: none; stroke: #0000ff; stroke-width: 1.5"/>
    <path d="M 301.273028 185.949328 
L 293.839582 190.582458 
" clip-path="url(#pd39c24dfe2)" style="fill: none; stroke: #0000ff; stroke-width: 1.5"/>
    <path d="M 301.273028 185.949328 
L 291.391264 186.088115 
" clip-path="url(#pd39c24dfe2)" style="fill: none; stroke: #0000ff; stroke-width: 1.5"/>
    <path d="M 172.026849 135.890042 
L 175.559253 144.264527 
" clip-path="url(#pd39c24dfe2)" style="fill: none; stroke: #0000ff; stroke-width: 1.5"/>
    <path d="M 172.026849 135.890042 
L 176.421016 141.4105 
" clip-path="url(#pd39c24dfe2)" style="fill: none; stroke: #0000ff; stroke-width: 1.5"/>
    <path d="M 230.659283 188.05153 
L 228.990525 192.44222 
" clip-path="url(#pd39c24dfe2)" style="fill: none; stroke: #0000ff; stroke-width: 1.5"/>
    <path d="M 230.659283 188.05153 
L 229.342395 187.645045 
" clip-path="url(#pd39c24dfe2)" style="fill: none; stroke: #0000ff; stroke-width: 1.5"/>
    <path d="M 150.888109 154.910772 
L 154.92477 162.109842 
" clip-path="url(#pd39c24dfe2)" style="fill: none; stroke: #0000ff; stroke-width: 1.5"/>
    <path d="M 150.888109 154.910772 
L 159.498577 158.695286 
" clip-path="url(#pd39c24dfe2)" style="fill: none; stroke: #0000ff; stroke-width: 1.5"/>
    <path d="M 289.681591 153.515942 
L 283.744537 160.213187 
" clip-path="url(#pd39c24dfe2)" style="fill: none; stroke: #0000ff; stroke-width: 1.5"/>
    <path d="M 289.681591 153.515942 
L 281.061984 157.704799 
" clip-path="url(#pd39c24dfe2)" style="fill: none; stroke: #0000ff; stroke-width: 1.5"/>
    <path d="M 277.68454 147.496922 
L 273.423826 154.772578 
" clip-path="url(#pd39c24dfe2)" style="fill: none; stroke: #0000ff; stroke-width: 1.5"/>
    <path d="M 277.68454 147.496922 
L 269.510074 152.459993 
" clip-path="url(#pd39c24dfe2)" style="fill: none; stroke: #0000ff; stroke-width: 1.5"/>
    <path d="M 284.171708 138.099031 
L 278.661925 146.047856 
" clip-path="url(#pd39c24dfe2)" style="fill: none; stroke: #0000ff; stroke-width: 1.5"/>
    <path d="M 284.171708 138.099031 
L 276.388426 143.804543 
" clip-path="url(#pd39c24dfe2)" style="fill: none; stroke: #0000ff; stroke-width: 1.5"/>
    <path d="M 307.065187 175.094947 
L 298.905241 180.204541 
" clip-path="url(#pd39c24dfe2)" style="fill: none; stroke: #0000ff; stroke-width: 1.5"/>
    <path d="M 307.065187 175.094947 
L 297.323294 176.703878 
" clip-path="url(#pd39c24dfe2)" style="fill: none; stroke: #0000ff; stroke-width: 1.5"/>
   </g>
   <g id="text_28">
    <!-- X -->
    <g transform="translate(303.268214 236.690086) scale(0.1 -0.1)">
     <use xlink:href="#DejaVuSans-58"/>
    </g>
   </g>
   <g id="text_29">
    <!-- Y -->
    <g transform="translate(275.672046 155.90139) scale(0.1 -0.1)">
     <use xlink:href="#DejaVuSans-59"/>
    </g>
   </g>
   <g id="text_30">
    <!-- Z -->
    <g transform="translate(213.654755 125.622487) scale(0.1 -0.1)">
     <use xlink:href="#DejaVuSans-5a"/>
    </g>
   </g>
   <g id="text_31">
    <!-- u -->
    <g style="fill: #0000ff" transform="translate(254.861417 110.292166) scale(0.1 -0.1)">
     <defs>
      <path id="DejaVuSans-75" d="M 544 1381 
L 544 3500 
L 1119 3500 
L 1119 1403 
Q 1119 906 1312 657 
Q 1506 409 1894 409 
Q 2359 409 2629 706 
Q 2900 1003 2900 1516 
L 2900 3500 
L 3475 3500 
L 3475 0 
L 2900 0 
L 2900 538 
Q 2691 219 2414 64 
Q 2138 -91 1772 -91 
Q 1169 -91 856 284 
Q 544 659 544 1381 
z
M 1991 3584 
L 1991 3584 
z
" transform="scale(0.015625)"/>
     </defs>
     <use xlink:href="#DejaVuSans-75"/>
    </g>
   </g>
   <g id="text_32">
    <!-- v -->
    <g style="fill: #0000ff" transform="translate(312.477311 164.952743) scale(0.1 -0.1)">
     <defs>
      <path id="DejaVuSans-76" d="M 191 3500 
L 800 3500 
L 1894 563 
L 2988 3500 
L 3597 3500 
L 2284 0 
L 1503 0 
L 191 3500 
z
" transform="scale(0.015625)"/>
     </defs>
     <use xlink:href="#DejaVuSans-76"/>
    </g>
   </g>
   <g id="text_33">
    <!-- w -->
    <g style="fill: #0000ff" transform="translate(301.273028 185.949328) scale(0.1 -0.1)">
     <defs>
      <path id="DejaVuSans-77" d="M 269 3500 
L 844 3500 
L 1563 769 
L 2278 3500 
L 2956 3500 
L 3675 769 
L 4391 3500 
L 4966 3500 
L 4050 0 
L 3372 0 
L 2619 2869 
L 1863 0 
L 1184 0 
L 269 3500 
z
" transform="scale(0.015625)"/>
     </defs>
     <use xlink:href="#DejaVuSans-77"/>
    </g>
   </g>
   <g id="text_34">
    <!-- u-w -->
    <g style="fill: #0000ff" transform="translate(172.026849 135.890042) scale(0.1 -0.1)">
     <defs>
      <path id="DejaVuSans-2d" d="M 313 2009 
L 1997 2009 
L 1997 1497 
L 313 1497 
L 313 2009 
z
" transform="scale(0.015625)"/>
     </defs>
     <use xlink:href="#DejaVuSans-75"/>
     <use xlink:href="#DejaVuSans-2d" x="63.378906"/>
     <use xlink:href="#DejaVuSans-77" x="99.462891"/>
    </g>
   </g>
   <g id="text_35">
    <!-- v-w -->
    <g style="fill: #0000ff" transform="translate(230.659283 188.05153) scale(0.1 -0.1)">
     <use xlink:href="#DejaVuSans-76"/>
     <use xlink:href="#DejaVuSans-2d" x="56.554688"/>
     <use xlink:href="#DejaVuSans-77" x="92.638672"/>
    </g>
   </g>
   <g id="text_36">
    <!-- u-v -->
    <g style="fill: #0000ff" transform="translate(150.888109 154.910772) scale(0.1 -0.1)">
     <use xlink:href="#DejaVuSans-75"/>
     <use xlink:href="#DejaVuSans-2d" x="63.378906"/>
     <use xlink:href="#DejaVuSans-76" x="96.837891"/>
    </g>
   </g>
   <g id="text_37">
    <!-- 0.33u+0.33v+0.33w -->
    <g style="fill: #0000ff" transform="translate(289.681591 153.515942) scale(0.1 -0.1)">
     <defs>
      <path id="DejaVuSans-33" d="M 2597 2516 
Q 3050 2419 3304 2112 
Q 3559 1806 3559 1356 
Q 3559 666 3084 287 
Q 2609 -91 1734 -91 
Q 1441 -91 1130 -33 
Q 819 25 488 141 
L 488 750 
Q 750 597 1062 519 
Q 1375 441 1716 441 
Q 2309 441 2620 675 
Q 2931 909 2931 1356 
Q 2931 1769 2642 2001 
Q 2353 2234 1838 2234 
L 1294 2234 
L 1294 2753 
L 1863 2753 
Q 2328 2753 2575 2939 
Q 2822 3125 2822 3475 
Q 2822 3834 2567 4026 
Q 2313 4219 1838 4219 
Q 1578 4219 1281 4162 
Q 984 4106 628 3988 
L 628 4550 
Q 988 4650 1302 4700 
Q 1616 4750 1894 4750 
Q 2613 4750 3031 4423 
Q 3450 4097 3450 3541 
Q 3450 3153 3228 2886 
Q 3006 2619 2597 2516 
z
" transform="scale(0.015625)"/>
      <path id="DejaVuSans-2b" d="M 2944 4013 
L 2944 2272 
L 4684 2272 
L 4684 1741 
L 2944 1741 
L 2944 0 
L 2419 0 
L 2419 1741 
L 678 1741 
L 678 2272 
L 2419 2272 
L 2419 4013 
L 2944 4013 
z
" transform="scale(0.015625)"/>
     </defs>
     <use xlink:href="#DejaVuSans-30"/>
     <use xlink:href="#DejaVuSans-2e" x="63.623047"/>
     <use xlink:href="#DejaVuSans-33" x="95.410156"/>
     <use xlink:href="#DejaVuSans-33" x="159.033203"/>
     <use xlink:href="#DejaVuSans-75" x="222.65625"/>
     <use xlink:href="#DejaVuSans-2b" x="286.035156"/>
     <use xlink:href="#DejaVuSans-30" x="369.824219"/>
     <use xlink:href="#DejaVuSans-2e" x="433.447266"/>
     <use xlink:href="#DejaVuSans-33" x="465.234375"/>
     <use xlink:href="#DejaVuSans-33" x="528.857422"/>
     <use xlink:href="#DejaVuSans-76" x="592.480469"/>
     <use xlink:href="#DejaVuSans-2b" x="651.660156"/>
     <use xlink:href="#DejaVuSans-30" x="735.449219"/>
     <use xlink:href="#DejaVuSans-2e" x="799.072266"/>
     <use xlink:href="#DejaVuSans-33" x="830.859375"/>
     <use xlink:href="#DejaVuSans-33" x="894.482422"/>
     <use xlink:href="#DejaVuSans-77" x="958.105469"/>
    </g>
   </g>
   <g id="text_38">
    <!-- 0.5u+0.5w -->
    <g style="fill: #0000ff" transform="translate(277.68454 147.496922) scale(0.1 -0.1)">
     <use xlink:href="#DejaVuSans-30"/>
     <use xlink:href="#DejaVuSans-2e" x="63.623047"/>
     <use xlink:href="#DejaVuSans-35" x="95.410156"/>
     <use xlink:href="#DejaVuSans-75" x="159.033203"/>
     <use xlink:href="#DejaVuSans-2b" x="222.412109"/>
     <use xlink:href="#DejaVuSans-30" x="306.201172"/>
     <use xlink:href="#DejaVuSans-2e" x="369.824219"/>
     <use xlink:href="#DejaVuSans-35" x="401.611328"/>
     <use xlink:href="#DejaVuSans-77" x="465.234375"/>
    </g>
   </g>
   <g id="text_39">
    <!-- 0.5u+0.5v -->
    <g style="fill: #0000ff" transform="translate(284.171708 138.099031) scale(0.1 -0.1)">
     <use xlink:href="#DejaVuSans-30"/>
     <use xlink:href="#DejaVuSans-2e" x="63.623047"/>
     <use xlink:href="#DejaVuSans-35" x="95.410156"/>
     <use xlink:href="#DejaVuSans-75" x="159.033203"/>
     <use xlink:href="#DejaVuSans-2b" x="222.412109"/>
     <use xlink:href="#DejaVuSans-30" x="306.201172"/>
     <use xlink:href="#DejaVuSans-2e" x="369.824219"/>
     <use xlink:href="#DejaVuSans-35" x="401.611328"/>
     <use xlink:href="#DejaVuSans-76" x="465.234375"/>
    </g>
   </g>
   <g id="text_40">
    <!-- 0.5w+0.5v -->
    <g style="fill: #0000ff" transform="translate(307.065187 175.094947) scale(0.1 -0.1)">
     <use xlink:href="#DejaVuSans-30"/>
     <use xlink:href="#DejaVuSans-2e" x="63.623047"/>
     <use xlink:href="#DejaVuSans-35" x="95.410156"/>
     <use xlink:href="#DejaVuSans-77" x="159.033203"/>
     <use xlink:href="#DejaVuSans-2b" x="240.820312"/>
     <use xlink:href="#DejaVuSans-30" x="324.609375"/>
     <use xlink:href="#DejaVuSans-2e" x="388.232422"/>
     <use xlink:href="#DejaVuSans-35" x="420.019531"/>
     <use xlink:href="#DejaVuSans-76" x="483.642578"/>
    </g>
   </g>
   <g id="text_41">
    <!-- 3D Plot -->
    <g transform="translate(208.7475 20.88) scale(0.12 -0.12)">
     <defs>
      <path id="DejaVuSans-44" d="M 1259 4147 
L 1259 519 
L 2022 519 
Q 2988 519 3436 956 
Q 3884 1394 3884 2338 
Q 3884 3275 3436 3711 
Q 2988 4147 2022 4147 
L 1259 4147 
z
M 628 4666 
L 1925 4666 
Q 3281 4666 3915 4102 
Q 4550 3538 4550 2338 
Q 4550 1131 3912 565 
Q 3275 0 1925 0 
L 628 0 
L 628 4666 
z
" transform="scale(0.015625)"/>
      <path id="DejaVuSans-20" transform="scale(0.015625)"/>
      <path id="DejaVuSans-50" d="M 1259 4147 
L 1259 2394 
L 2053 2394 
Q 2494 2394 2734 2622 
Q 2975 2850 2975 3272 
Q 2975 3691 2734 3919 
Q 2494 4147 2053 4147 
L 1259 4147 
z
M 628 4666 
L 2053 4666 
Q 2838 4666 3239 4311 
Q 3641 3956 3641 3272 
Q 3641 2581 3239 2228 
Q 2838 1875 2053 1875 
L 1259 1875 
L 1259 0 
L 628 0 
L 628 4666 
z
" transform="scale(0.015625)"/>
      <path id="DejaVuSans-6c" d="M 603 4863 
L 1178 4863 
L 1178 0 
L 603 0 
L 603 4863 
z
" transform="scale(0.015625)"/>
      <path id="DejaVuSans-6f" d="M 1959 3097 
Q 1497 3097 1228 2736 
Q 959 2375 959 1747 
Q 959 1119 1226 758 
Q 1494 397 1959 397 
Q 2419 397 2687 759 
Q 2956 1122 2956 1747 
Q 2956 2369 2687 2733 
Q 2419 3097 1959 3097 
z
M 1959 3584 
Q 2709 3584 3137 3096 
Q 3566 2609 3566 1747 
Q 3566 888 3137 398 
Q 2709 -91 1959 -91 
Q 1206 -91 779 398 
Q 353 888 353 1747 
Q 353 2609 779 3096 
Q 1206 3584 1959 3584 
z
" transform="scale(0.015625)"/>
      <path id="DejaVuSans-74" d="M 1172 4494 
L 1172 3500 
L 2356 3500 
L 2356 3053 
L 1172 3053 
L 1172 1153 
Q 1172 725 1289 603 
Q 1406 481 1766 481 
L 2356 481 
L 2356 0 
L 1766 0 
Q 1100 0 847 248 
Q 594 497 594 1153 
L 594 3053 
L 172 3053 
L 172 3500 
L 594 3500 
L 594 4494 
L 1172 4494 
z
" transform="scale(0.015625)"/>
     </defs>
     <use xlink:href="#DejaVuSans-33"/>
     <use xlink:href="#DejaVuSans-44" x="63.623047"/>
     <use xlink:href="#DejaVuSans-20" x="140.625"/>
     <use xlink:href="#DejaVuSans-50" x="172.412109"/>
     <use xlink:href="#DejaVuSans-6c" x="232.714844"/>
     <use xlink:href="#DejaVuSans-6f" x="260.498047"/>
     <use xlink:href="#DejaVuSans-74" x="321.679688"/>
    </g>
   </g>
  </g>
 </g>
 <defs>
  <clipPath id="pd39c24dfe2">
   <rect x="76.44" y="26.88" width="307.92" height="307.92"/>
  </clipPath>
 </defs>
</svg>
