<?xml version="1.0" encoding="utf-8" standalone="no"?>
<!DOCTYPE svg PUBLIC "-//W3C//DTD SVG 1.1//EN"
  "http://www.w3.org/Graphics/SVG/1.1/DTD/svg11.dtd">
<svg xmlns:xlink="http://www.w3.org/1999/xlink" width="460.8pt" height="345.6pt" viewBox="0 0 460.8 345.6" xmlns="http://www.w3.org/2000/svg" version="1.1">
 <metadata>
  <rdf:RDF xmlns:dc="http://purl.org/dc/elements/1.1/" xmlns:cc="http://creativecommons.org/ns#" xmlns:rdf="http://www.w3.org/1999/02/22-rdf-syntax-ns#">
   <cc:Work>
    <dc:type rdf:resource="http://purl.org/dc/dcmitype/StillImage"/>
    <dc:date>2024-04-13T22:26:45.685580</dc:date>
    <dc:format>image/svg+xml</dc:format>
    <dc:creator>
     <cc:Agent>
      <dc:title>Matplotlib v3.8.4, https://matplotlib.org/</dc:title>
     </cc:Agent>
    </dc:creator>
   </cc:Work>
  </rdf:RDF>
 </metadata>
 <defs>
  <style type="text/css">*{stroke-linejoin: round; stroke-linecap: butt}</style>
 </defs>
 <g id="figure_1">
  <g id="patch_1">
   <path d="M 0 345.6 
L 460.8 345.6 
L 460.8 0 
L 0 0 
z
" style="fill: #ffffff"/>
  </g>
  <g id="axes_1">
   <g id="patch_2">
    <path d="M 46.64 303.64 
L 446.85 303.64 
L 446.85 26.88 
L 46.64 26.88 
z
" style="fill: #ffffff"/>
   </g>
   <g id="Quiver_1">
    <path d="M 113.741877 257.513333 
L 113.541772 257.166741 
L 113.141562 257.166741 
L 112.941457 257.513333 
L 113.141562 257.859925 
L 113.541772 257.859925 
L 113.741877 257.513333 
L 113.541772 257.166741 
" clip-path="url(#p4d2e56e2ad)" style="fill: #0000ff"/>
    <path d="M 112.941457 257.513333 
L 112.941457 214.988557 
L 112.141037 215.388767 
L 113.341667 211.386667 
L 114.542297 215.388767 
L 113.741877 214.988557 
L 113.741877 257.513333 
L 112.941457 257.513333 
" clip-path="url(#p4d2e56e2ad)" style="fill: #0000ff"/>
    <path d="M 112.941457 257.513333 
L 112.941457 168.86189 
L 112.141037 169.2621 
L 113.341667 165.26 
L 114.542297 169.2621 
L 113.741877 168.86189 
L 113.741877 257.513333 
L 112.941457 257.513333 
" clip-path="url(#p4d2e56e2ad)" style="fill: #0000ff"/>
    <path d="M 113.210884 257.135095 
L 243.210076 212.185473 
L 242.570273 211.55978 
L 246.745 211.386667 
L 243.354969 213.829208 
L 243.471642 212.941949 
L 113.472449 257.891571 
L 113.210884 257.135095 
" clip-path="url(#p4d2e56e2ad)" style="fill: #0000ff"/>
    <path d="M 113.114035 257.184165 
L 243.554854 166.97952 
L 242.770422 166.548815 
L 246.745 165.26 
L 244.136214 168.523825 
L 244.010118 167.637856 
L 113.569299 257.842502 
L 113.114035 257.184165 
" clip-path="url(#p4d2e56e2ad)" style="fill: #0000ff"/>
    <path d="M 113.053542 257.235571 
L 243.95701 121.448694 
L 243.102998 121.181293 
L 246.745 119.133333 
L 244.831747 122.84787 
L 244.53326 122.004219 
L 113.629791 257.791096 
L 113.053542 257.235571 
" clip-path="url(#p4d2e56e2ad)" style="fill: #0000ff"/>
    <path d="M 113.210884 257.135095 
L 376.613409 166.058807 
L 375.973606 165.433114 
L 380.148333 165.26 
L 376.758302 167.702541 
L 376.874975 166.815283 
L 113.472449 257.891571 
L 113.210884 257.135095 
" clip-path="url(#p4d2e56e2ad)" style="fill: #0000ff"/>
    <path d="M 113.157406 257.158065 
L 376.766653 120.436415 
L 376.042862 119.910138 
L 380.148333 119.133333 
L 377.148429 122.041751 
L 377.135176 121.146952 
L 113.525928 257.868602 
L 113.157406 257.158065 
" clip-path="url(#p4d2e56e2ad)" style="fill: #0000ff"/>
    <path d="M 113.114035 257.184165 
L 376.958187 74.726186 
L 376.173755 74.295482 
L 380.148333 73.006667 
L 377.539547 76.270491 
L 377.413451 75.384523 
L 113.569299 257.842502 
L 113.114035 257.184165 
" clip-path="url(#p4d2e56e2ad)" style="fill: #0000ff"/>
   </g>
   <g id="matplotlib.axis_1">
    <g id="xtick_1">
     <g id="line2d_1">
      <path d="M 46.64 303.64 
L 46.64 26.88 
" clip-path="url(#p4d2e56e2ad)" style="fill: none; stroke: #b0b0b0; stroke-width: 0.8; stroke-linecap: square"/>
     </g>
     <g id="line2d_2">
      <defs>
       <path id="m53e0b12fd1" d="M 0 0 
L 0 3.5 
" style="stroke: #000000; stroke-width: 0.8"/>
      </defs>
      <g>
       <use xlink:href="#m53e0b12fd1" x="46.64" y="303.64" style="stroke: #000000; stroke-width: 0.8"/>
      </g>
     </g>
     <g id="text_1">
      <!-- −1 -->
      <g transform="translate(39.268906 318.238437) scale(0.1 -0.1)">
       <defs>
        <path id="DejaVuSans-2212" d="M 678 2272 
L 4684 2272 
L 4684 1741 
L 678 1741 
L 678 2272 
z
" transform="scale(0.015625)"/>
        <path id="DejaVuSans-31" d="M 794 531 
L 1825 531 
L 1825 4091 
L 703 3866 
L 703 4441 
L 1819 4666 
L 2450 4666 
L 2450 531 
L 3481 531 
L 3481 0 
L 794 0 
L 794 531 
z
" transform="scale(0.015625)"/>
       </defs>
       <use xlink:href="#DejaVuSans-2212"/>
       <use xlink:href="#DejaVuSans-31" x="83.789062"/>
      </g>
     </g>
    </g>
    <g id="xtick_2">
     <g id="line2d_3">
      <path d="M 113.341667 303.64 
L 113.341667 26.88 
" clip-path="url(#p4d2e56e2ad)" style="fill: none; stroke: #b0b0b0; stroke-width: 0.8; stroke-linecap: square"/>
     </g>
     <g id="line2d_4">
      <g>
       <use xlink:href="#m53e0b12fd1" x="113.341667" y="303.64" style="stroke: #000000; stroke-width: 0.8"/>
      </g>
     </g>
     <g id="text_2">
      <!-- 0 -->
      <g transform="translate(110.160417 318.238437) scale(0.1 -0.1)">
       <defs>
        <path id="DejaVuSans-30" d="M 2034 4250 
Q 1547 4250 1301 3770 
Q 1056 3291 1056 2328 
Q 1056 1369 1301 889 
Q 1547 409 2034 409 
Q 2525 409 2770 889 
Q 3016 1369 3016 2328 
Q 3016 3291 2770 3770 
Q 2525 4250 2034 4250 
z
M 2034 4750 
Q 2819 4750 3233 4129 
Q 3647 3509 3647 2328 
Q 3647 1150 3233 529 
Q 2819 -91 2034 -91 
Q 1250 -91 836 529 
Q 422 1150 422 2328 
Q 422 3509 836 4129 
Q 1250 4750 2034 4750 
z
" transform="scale(0.015625)"/>
       </defs>
       <use xlink:href="#DejaVuSans-30"/>
      </g>
     </g>
    </g>
    <g id="xtick_3">
     <g id="line2d_5">
      <path d="M 180.043333 303.64 
L 180.043333 26.88 
" clip-path="url(#p4d2e56e2ad)" style="fill: none; stroke: #b0b0b0; stroke-width: 0.8; stroke-linecap: square"/>
     </g>
     <g id="line2d_6">
      <g>
       <use xlink:href="#m53e0b12fd1" x="180.043333" y="303.64" style="stroke: #000000; stroke-width: 0.8"/>
      </g>
     </g>
     <g id="text_3">
      <!-- 1 -->
      <g transform="translate(176.862083 318.238437) scale(0.1 -0.1)">
       <use xlink:href="#DejaVuSans-31"/>
      </g>
     </g>
    </g>
    <g id="xtick_4">
     <g id="line2d_7">
      <path d="M 246.745 303.64 
L 246.745 26.88 
" clip-path="url(#p4d2e56e2ad)" style="fill: none; stroke: #b0b0b0; stroke-width: 0.8; stroke-linecap: square"/>
     </g>
     <g id="line2d_8">
      <g>
       <use xlink:href="#m53e0b12fd1" x="246.745" y="303.64" style="stroke: #000000; stroke-width: 0.8"/>
      </g>
     </g>
     <g id="text_4">
      <!-- 2 -->
      <g transform="translate(243.56375 318.238437) scale(0.1 -0.1)">
       <defs>
        <path id="DejaVuSans-32" d="M 1228 531 
L 3431 531 
L 3431 0 
L 469 0 
L 469 531 
Q 828 903 1448 1529 
Q 2069 2156 2228 2338 
Q 2531 2678 2651 2914 
Q 2772 3150 2772 3378 
Q 2772 3750 2511 3984 
Q 2250 4219 1831 4219 
Q 1534 4219 1204 4116 
Q 875 4013 500 3803 
L 500 4441 
Q 881 4594 1212 4672 
Q 1544 4750 1819 4750 
Q 2544 4750 2975 4387 
Q 3406 4025 3406 3419 
Q 3406 3131 3298 2873 
Q 3191 2616 2906 2266 
Q 2828 2175 2409 1742 
Q 1991 1309 1228 531 
z
" transform="scale(0.015625)"/>
       </defs>
       <use xlink:href="#DejaVuSans-32"/>
      </g>
     </g>
    </g>
    <g id="xtick_5">
     <g id="line2d_9">
      <path d="M 313.446667 303.64 
L 313.446667 26.88 
" clip-path="url(#p4d2e56e2ad)" style="fill: none; stroke: #b0b0b0; stroke-width: 0.8; stroke-linecap: square"/>
     </g>
     <g id="line2d_10">
      <g>
       <use xlink:href="#m53e0b12fd1" x="313.446667" y="303.64" style="stroke: #000000; stroke-width: 0.8"/>
      </g>
     </g>
     <g id="text_5">
      <!-- 3 -->
      <g transform="translate(310.265417 318.238437) scale(0.1 -0.1)">
       <defs>
        <path id="DejaVuSans-33" d="M 2597 2516 
Q 3050 2419 3304 2112 
Q 3559 1806 3559 1356 
Q 3559 666 3084 287 
Q 2609 -91 1734 -91 
Q 1441 -91 1130 -33 
Q 819 25 488 141 
L 488 750 
Q 750 597 1062 519 
Q 1375 441 1716 441 
Q 2309 441 2620 675 
Q 2931 909 2931 1356 
Q 2931 1769 2642 2001 
Q 2353 2234 1838 2234 
L 1294 2234 
L 1294 2753 
L 1863 2753 
Q 2328 2753 2575 2939 
Q 2822 3125 2822 3475 
Q 2822 3834 2567 4026 
Q 2313 4219 1838 4219 
Q 1578 4219 1281 4162 
Q 984 4106 628 3988 
L 628 4550 
Q 988 4650 1302 4700 
Q 1616 4750 1894 4750 
Q 2613 4750 3031 4423 
Q 3450 4097 3450 3541 
Q 3450 3153 3228 2886 
Q 3006 2619 2597 2516 
z
" transform="scale(0.015625)"/>
       </defs>
       <use xlink:href="#DejaVuSans-33"/>
      </g>
     </g>
    </g>
    <g id="xtick_6">
     <g id="line2d_11">
      <path d="M 380.148333 303.64 
L 380.148333 26.88 
" clip-path="url(#p4d2e56e2ad)" style="fill: none; stroke: #b0b0b0; stroke-width: 0.8; stroke-linecap: square"/>
     </g>
     <g id="line2d_12">
      <g>
       <use xlink:href="#m53e0b12fd1" x="380.148333" y="303.64" style="stroke: #000000; stroke-width: 0.8"/>
      </g>
     </g>
     <g id="text_6">
      <!-- 4 -->
      <g transform="translate(376.967083 318.238437) scale(0.1 -0.1)">
       <defs>
        <path id="DejaVuSans-34" d="M 2419 4116 
L 825 1625 
L 2419 1625 
L 2419 4116 
z
M 2253 4666 
L 3047 4666 
L 3047 1625 
L 3713 1625 
L 3713 1100 
L 3047 1100 
L 3047 0 
L 2419 0 
L 2419 1100 
L 313 1100 
L 313 1709 
L 2253 4666 
z
" transform="scale(0.015625)"/>
       </defs>
       <use xlink:href="#DejaVuSans-34"/>
      </g>
     </g>
    </g>
    <g id="xtick_7">
     <g id="line2d_13">
      <path d="M 446.85 303.64 
L 446.85 26.88 
" clip-path="url(#p4d2e56e2ad)" style="fill: none; stroke: #b0b0b0; stroke-width: 0.8; stroke-linecap: square"/>
     </g>
     <g id="line2d_14">
      <g>
       <use xlink:href="#m53e0b12fd1" x="446.85" y="303.64" style="stroke: #000000; stroke-width: 0.8"/>
      </g>
     </g>
     <g id="text_7">
      <!-- 5 -->
      <g transform="translate(443.66875 318.238437) scale(0.1 -0.1)">
       <defs>
        <path id="DejaVuSans-35" d="M 691 4666 
L 3169 4666 
L 3169 4134 
L 1269 4134 
L 1269 2991 
Q 1406 3038 1543 3061 
Q 1681 3084 1819 3084 
Q 2600 3084 3056 2656 
Q 3513 2228 3513 1497 
Q 3513 744 3044 326 
Q 2575 -91 1722 -91 
Q 1428 -91 1123 -41 
Q 819 9 494 109 
L 494 744 
Q 775 591 1075 516 
Q 1375 441 1709 441 
Q 2250 441 2565 725 
Q 2881 1009 2881 1497 
Q 2881 1984 2565 2268 
Q 2250 2553 1709 2553 
Q 1456 2553 1204 2497 
Q 953 2441 691 2322 
L 691 4666 
z
" transform="scale(0.015625)"/>
       </defs>
       <use xlink:href="#DejaVuSans-35"/>
      </g>
     </g>
    </g>
    <g id="text_8">
     <!-- X -->
     <g transform="translate(243.32 331.916562) scale(0.1 -0.1)">
      <defs>
       <path id="DejaVuSans-58" d="M 403 4666 
L 1081 4666 
L 2241 2931 
L 3406 4666 
L 4084 4666 
L 2584 2425 
L 4184 0 
L 3506 0 
L 2194 1984 
L 872 0 
L 191 0 
L 1856 2491 
L 403 4666 
z
" transform="scale(0.015625)"/>
      </defs>
      <use xlink:href="#DejaVuSans-58"/>
     </g>
    </g>
   </g>
   <g id="matplotlib.axis_2">
    <g id="ytick_1">
     <g id="line2d_15">
      <path d="M 46.64 303.64 
L 446.85 303.64 
" clip-path="url(#p4d2e56e2ad)" style="fill: none; stroke: #b0b0b0; stroke-width: 0.8; stroke-linecap: square"/>
     </g>
     <g id="line2d_16">
      <defs>
       <path id="m4843b61886" d="M 0 0 
L -3.5 0 
" style="stroke: #000000; stroke-width: 0.8"/>
      </defs>
      <g>
       <use xlink:href="#m4843b61886" x="46.64" y="303.64" style="stroke: #000000; stroke-width: 0.8"/>
      </g>
     </g>
     <g id="text_9">
      <!-- −1 -->
      <g transform="translate(24.897813 307.439219) scale(0.1 -0.1)">
       <use xlink:href="#DejaVuSans-2212"/>
       <use xlink:href="#DejaVuSans-31" x="83.789062"/>
      </g>
     </g>
    </g>
    <g id="ytick_2">
     <g id="line2d_17">
      <path d="M 46.64 257.513333 
L 446.85 257.513333 
" clip-path="url(#p4d2e56e2ad)" style="fill: none; stroke: #b0b0b0; stroke-width: 0.8; stroke-linecap: square"/>
     </g>
     <g id="line2d_18">
      <g>
       <use xlink:href="#m4843b61886" x="46.64" y="257.513333" style="stroke: #000000; stroke-width: 0.8"/>
      </g>
     </g>
     <g id="text_10">
      <!-- 0 -->
      <g transform="translate(33.2775 261.312552) scale(0.1 -0.1)">
       <use xlink:href="#DejaVuSans-30"/>
      </g>
     </g>
    </g>
    <g id="ytick_3">
     <g id="line2d_19">
      <path d="M 46.64 211.386667 
L 446.85 211.386667 
" clip-path="url(#p4d2e56e2ad)" style="fill: none; stroke: #b0b0b0; stroke-width: 0.8; stroke-linecap: square"/>
     </g>
     <g id="line2d_20">
      <g>
       <use xlink:href="#m4843b61886" x="46.64" y="211.386667" style="stroke: #000000; stroke-width: 0.8"/>
      </g>
     </g>
     <g id="text_11">
      <!-- 1 -->
      <g transform="translate(33.2775 215.185885) scale(0.1 -0.1)">
       <use xlink:href="#DejaVuSans-31"/>
      </g>
     </g>
    </g>
    <g id="ytick_4">
     <g id="line2d_21">
      <path d="M 46.64 165.26 
L 446.85 165.26 
" clip-path="url(#p4d2e56e2ad)" style="fill: none; stroke: #b0b0b0; stroke-width: 0.8; stroke-linecap: square"/>
     </g>
     <g id="line2d_22">
      <g>
       <use xlink:href="#m4843b61886" x="46.64" y="165.26" style="stroke: #000000; stroke-width: 0.8"/>
      </g>
     </g>
     <g id="text_12">
      <!-- 2 -->
      <g transform="translate(33.2775 169.059219) scale(0.1 -0.1)">
       <use xlink:href="#DejaVuSans-32"/>
      </g>
     </g>
    </g>
    <g id="ytick_5">
     <g id="line2d_23">
      <path d="M 46.64 119.133333 
L 446.85 119.133333 
" clip-path="url(#p4d2e56e2ad)" style="fill: none; stroke: #b0b0b0; stroke-width: 0.8; stroke-linecap: square"/>
     </g>
     <g id="line2d_24">
      <g>
       <use xlink:href="#m4843b61886" x="46.64" y="119.133333" style="stroke: #000000; stroke-width: 0.8"/>
      </g>
     </g>
     <g id="text_13">
      <!-- 3 -->
      <g transform="translate(33.2775 122.932552) scale(0.1 -0.1)">
       <use xlink:href="#DejaVuSans-33"/>
      </g>
     </g>
    </g>
    <g id="ytick_6">
     <g id="line2d_25">
      <path d="M 46.64 73.006667 
L 446.85 73.006667 
" clip-path="url(#p4d2e56e2ad)" style="fill: none; stroke: #b0b0b0; stroke-width: 0.8; stroke-linecap: square"/>
     </g>
     <g id="line2d_26">
      <g>
       <use xlink:href="#m4843b61886" x="46.64" y="73.006667" style="stroke: #000000; stroke-width: 0.8"/>
      </g>
     </g>
     <g id="text_14">
      <!-- 4 -->
      <g transform="translate(33.2775 76.805885) scale(0.1 -0.1)">
       <use xlink:href="#DejaVuSans-34"/>
      </g>
     </g>
    </g>
    <g id="ytick_7">
     <g id="line2d_27">
      <path d="M 46.64 26.88 
L 446.85 26.88 
" clip-path="url(#p4d2e56e2ad)" style="fill: none; stroke: #b0b0b0; stroke-width: 0.8; stroke-linecap: square"/>
     </g>
     <g id="line2d_28">
      <g>
       <use xlink:href="#m4843b61886" x="46.64" y="26.88" style="stroke: #000000; stroke-width: 0.8"/>
      </g>
     </g>
     <g id="text_15">
      <!-- 5 -->
      <g transform="translate(33.2775 30.679219) scale(0.1 -0.1)">
       <use xlink:href="#DejaVuSans-35"/>
      </g>
     </g>
    </g>
    <g id="text_16">
     <!-- Y -->
     <g transform="translate(18.818125 168.313906) rotate(-90) scale(0.1 -0.1)">
      <defs>
       <path id="DejaVuSans-59" d="M -13 4666 
L 666 4666 
L 1959 2747 
L 3244 4666 
L 3922 4666 
L 2272 2222 
L 2272 0 
L 1638 0 
L 1638 2222 
L -13 4666 
z
" transform="scale(0.015625)"/>
      </defs>
      <use xlink:href="#DejaVuSans-59"/>
     </g>
    </g>
   </g>
   <g id="line2d_29">
    <path d="M 46.64 257.513333 
L 446.85 257.513333 
" clip-path="url(#p4d2e56e2ad)" style="fill: none; stroke: #000000; stroke-width: 1.5; stroke-linecap: square"/>
   </g>
   <g id="line2d_30">
    <path d="M 113.341667 303.64 
L 113.341667 26.88 
" clip-path="url(#p4d2e56e2ad)" style="fill: none; stroke: #000000; stroke-width: 1.5; stroke-linecap: square"/>
   </g>
   <g id="patch_3">
    <path d="M 46.64 303.64 
L 46.64 26.88 
" style="fill: none; stroke: #000000; stroke-width: 0.8; stroke-linejoin: miter; stroke-linecap: square"/>
   </g>
   <g id="patch_4">
    <path d="M 446.85 303.64 
L 446.85 26.88 
" style="fill: none; stroke: #000000; stroke-width: 0.8; stroke-linejoin: miter; stroke-linecap: square"/>
   </g>
   <g id="patch_5">
    <path d="M 46.64 303.64 
L 446.85 303.64 
" style="fill: none; stroke: #000000; stroke-width: 0.8; stroke-linejoin: miter; stroke-linecap: square"/>
   </g>
   <g id="patch_6">
    <path d="M 46.64 26.88 
L 446.85 26.88 
" style="fill: none; stroke: #000000; stroke-width: 0.8; stroke-linejoin: miter; stroke-linecap: square"/>
   </g>
   <g id="text_17">
    <!-- 0u+0v(0, 0) -->
    <g style="fill: #0000ff" transform="translate(113.341667 257.513333) scale(0.1 -0.1)">
     <defs>
      <path id="DejaVuSans-75" d="M 544 1381 
L 544 3500 
L 1119 3500 
L 1119 1403 
Q 1119 906 1312 657 
Q 1506 409 1894 409 
Q 2359 409 2629 706 
Q 2900 1003 2900 1516 
L 2900 3500 
L 3475 3500 
L 3475 0 
L 2900 0 
L 2900 538 
Q 2691 219 2414 64 
Q 2138 -91 1772 -91 
Q 1169 -91 856 284 
Q 544 659 544 1381 
z
M 1991 3584 
L 1991 3584 
z
" transform="scale(0.015625)"/>
      <path id="DejaVuSans-2b" d="M 2944 4013 
L 2944 2272 
L 4684 2272 
L 4684 1741 
L 2944 1741 
L 2944 0 
L 2419 0 
L 2419 1741 
L 678 1741 
L 678 2272 
L 2419 2272 
L 2419 4013 
L 2944 4013 
z
" transform="scale(0.015625)"/>
      <path id="DejaVuSans-76" d="M 191 3500 
L 800 3500 
L 1894 563 
L 2988 3500 
L 3597 3500 
L 2284 0 
L 1503 0 
L 191 3500 
z
" transform="scale(0.015625)"/>
      <path id="DejaVuSans-28" d="M 1984 4856 
Q 1566 4138 1362 3434 
Q 1159 2731 1159 2009 
Q 1159 1288 1364 580 
Q 1569 -128 1984 -844 
L 1484 -844 
Q 1016 -109 783 600 
Q 550 1309 550 2009 
Q 550 2706 781 3412 
Q 1013 4119 1484 4856 
L 1984 4856 
z
" transform="scale(0.015625)"/>
      <path id="DejaVuSans-2c" d="M 750 794 
L 1409 794 
L 1409 256 
L 897 -744 
L 494 -744 
L 750 256 
L 750 794 
z
" transform="scale(0.015625)"/>
      <path id="DejaVuSans-20" transform="scale(0.015625)"/>
      <path id="DejaVuSans-29" d="M 513 4856 
L 1013 4856 
Q 1481 4119 1714 3412 
Q 1947 2706 1947 2009 
Q 1947 1309 1714 600 
Q 1481 -109 1013 -844 
L 513 -844 
Q 928 -128 1133 580 
Q 1338 1288 1338 2009 
Q 1338 2731 1133 3434 
Q 928 4138 513 4856 
z
" transform="scale(0.015625)"/>
     </defs>
     <use xlink:href="#DejaVuSans-30"/>
     <use xlink:href="#DejaVuSans-75" x="63.623047"/>
     <use xlink:href="#DejaVuSans-2b" x="127.001953"/>
     <use xlink:href="#DejaVuSans-30" x="210.791016"/>
     <use xlink:href="#DejaVuSans-76" x="274.414062"/>
     <use xlink:href="#DejaVuSans-28" x="333.59375"/>
     <use xlink:href="#DejaVuSans-30" x="372.607422"/>
     <use xlink:href="#DejaVuSans-2c" x="436.230469"/>
     <use xlink:href="#DejaVuSans-20" x="468.017578"/>
     <use xlink:href="#DejaVuSans-30" x="499.804688"/>
     <use xlink:href="#DejaVuSans-29" x="563.427734"/>
    </g>
   </g>
   <g id="text_18">
    <!-- 0u+1v(0, 1) -->
    <g style="fill: #0000ff" transform="translate(113.341667 211.386667) scale(0.1 -0.1)">
     <use xlink:href="#DejaVuSans-30"/>
     <use xlink:href="#DejaVuSans-75" x="63.623047"/>
     <use xlink:href="#DejaVuSans-2b" x="127.001953"/>
     <use xlink:href="#DejaVuSans-31" x="210.791016"/>
     <use xlink:href="#DejaVuSans-76" x="274.414062"/>
     <use xlink:href="#DejaVuSans-28" x="333.59375"/>
     <use xlink:href="#DejaVuSans-30" x="372.607422"/>
     <use xlink:href="#DejaVuSans-2c" x="436.230469"/>
     <use xlink:href="#DejaVuSans-20" x="468.017578"/>
     <use xlink:href="#DejaVuSans-31" x="499.804688"/>
     <use xlink:href="#DejaVuSans-29" x="563.427734"/>
    </g>
   </g>
   <g id="text_19">
    <!-- 0u+2v(0, 2) -->
    <g style="fill: #0000ff" transform="translate(113.341667 165.26) scale(0.1 -0.1)">
     <use xlink:href="#DejaVuSans-30"/>
     <use xlink:href="#DejaVuSans-75" x="63.623047"/>
     <use xlink:href="#DejaVuSans-2b" x="127.001953"/>
     <use xlink:href="#DejaVuSans-32" x="210.791016"/>
     <use xlink:href="#DejaVuSans-76" x="274.414062"/>
     <use xlink:href="#DejaVuSans-28" x="333.59375"/>
     <use xlink:href="#DejaVuSans-30" x="372.607422"/>
     <use xlink:href="#DejaVuSans-2c" x="436.230469"/>
     <use xlink:href="#DejaVuSans-20" x="468.017578"/>
     <use xlink:href="#DejaVuSans-32" x="499.804688"/>
     <use xlink:href="#DejaVuSans-29" x="563.427734"/>
    </g>
   </g>
   <g id="text_20">
    <!-- 1u+0v(2, 1) -->
    <g style="fill: #0000ff" transform="translate(246.745 211.386667) scale(0.1 -0.1)">
     <use xlink:href="#DejaVuSans-31"/>
     <use xlink:href="#DejaVuSans-75" x="63.623047"/>
     <use xlink:href="#DejaVuSans-2b" x="127.001953"/>
     <use xlink:href="#DejaVuSans-30" x="210.791016"/>
     <use xlink:href="#DejaVuSans-76" x="274.414062"/>
     <use xlink:href="#DejaVuSans-28" x="333.59375"/>
     <use xlink:href="#DejaVuSans-32" x="372.607422"/>
     <use xlink:href="#DejaVuSans-2c" x="436.230469"/>
     <use xlink:href="#DejaVuSans-20" x="468.017578"/>
     <use xlink:href="#DejaVuSans-31" x="499.804688"/>
     <use xlink:href="#DejaVuSans-29" x="563.427734"/>
    </g>
   </g>
   <g id="text_21">
    <!-- 1u+1v(2, 2) -->
    <g style="fill: #0000ff" transform="translate(246.745 165.26) scale(0.1 -0.1)">
     <use xlink:href="#DejaVuSans-31"/>
     <use xlink:href="#DejaVuSans-75" x="63.623047"/>
     <use xlink:href="#DejaVuSans-2b" x="127.001953"/>
     <use xlink:href="#DejaVuSans-31" x="210.791016"/>
     <use xlink:href="#DejaVuSans-76" x="274.414062"/>
     <use xlink:href="#DejaVuSans-28" x="333.59375"/>
     <use xlink:href="#DejaVuSans-32" x="372.607422"/>
     <use xlink:href="#DejaVuSans-2c" x="436.230469"/>
     <use xlink:href="#DejaVuSans-20" x="468.017578"/>
     <use xlink:href="#DejaVuSans-32" x="499.804688"/>
     <use xlink:href="#DejaVuSans-29" x="563.427734"/>
    </g>
   </g>
   <g id="text_22">
    <!-- 1u+2v(2, 3) -->
    <g style="fill: #0000ff" transform="translate(246.745 119.133333) scale(0.1 -0.1)">
     <use xlink:href="#DejaVuSans-31"/>
     <use xlink:href="#DejaVuSans-75" x="63.623047"/>
     <use xlink:href="#DejaVuSans-2b" x="127.001953"/>
     <use xlink:href="#DejaVuSans-32" x="210.791016"/>
     <use xlink:href="#DejaVuSans-76" x="274.414062"/>
     <use xlink:href="#DejaVuSans-28" x="333.59375"/>
     <use xlink:href="#DejaVuSans-32" x="372.607422"/>
     <use xlink:href="#DejaVuSans-2c" x="436.230469"/>
     <use xlink:href="#DejaVuSans-20" x="468.017578"/>
     <use xlink:href="#DejaVuSans-33" x="499.804688"/>
     <use xlink:href="#DejaVuSans-29" x="563.427734"/>
    </g>
   </g>
   <g id="text_23">
    <!-- 2u+0v(4, 2) -->
    <g style="fill: #0000ff" transform="translate(380.148333 165.26) scale(0.1 -0.1)">
     <use xlink:href="#DejaVuSans-32"/>
     <use xlink:href="#DejaVuSans-75" x="63.623047"/>
     <use xlink:href="#DejaVuSans-2b" x="127.001953"/>
     <use xlink:href="#DejaVuSans-30" x="210.791016"/>
     <use xlink:href="#DejaVuSans-76" x="274.414062"/>
     <use xlink:href="#DejaVuSans-28" x="333.59375"/>
     <use xlink:href="#DejaVuSans-34" x="372.607422"/>
     <use xlink:href="#DejaVuSans-2c" x="436.230469"/>
     <use xlink:href="#DejaVuSans-20" x="468.017578"/>
     <use xlink:href="#DejaVuSans-32" x="499.804688"/>
     <use xlink:href="#DejaVuSans-29" x="563.427734"/>
    </g>
   </g>
   <g id="text_24">
    <!-- 2u+1v(4, 3) -->
    <g style="fill: #0000ff" transform="translate(380.148333 119.133333) scale(0.1 -0.1)">
     <use xlink:href="#DejaVuSans-32"/>
     <use xlink:href="#DejaVuSans-75" x="63.623047"/>
     <use xlink:href="#DejaVuSans-2b" x="127.001953"/>
     <use xlink:href="#DejaVuSans-31" x="210.791016"/>
     <use xlink:href="#DejaVuSans-76" x="274.414062"/>
     <use xlink:href="#DejaVuSans-28" x="333.59375"/>
     <use xlink:href="#DejaVuSans-34" x="372.607422"/>
     <use xlink:href="#DejaVuSans-2c" x="436.230469"/>
     <use xlink:href="#DejaVuSans-20" x="468.017578"/>
     <use xlink:href="#DejaVuSans-33" x="499.804688"/>
     <use xlink:href="#DejaVuSans-29" x="563.427734"/>
    </g>
   </g>
   <g id="text_25">
    <!-- 2u+2v(4, 4) -->
    <g style="fill: #0000ff" transform="translate(380.148333 73.006667) scale(0.1 -0.1)">
     <use xlink:href="#DejaVuSans-32"/>
     <use xlink:href="#DejaVuSans-75" x="63.623047"/>
     <use xlink:href="#DejaVuSans-2b" x="127.001953"/>
     <use xlink:href="#DejaVuSans-32" x="210.791016"/>
     <use xlink:href="#DejaVuSans-76" x="274.414062"/>
     <use xlink:href="#DejaVuSans-28" x="333.59375"/>
     <use xlink:href="#DejaVuSans-34" x="372.607422"/>
     <use xlink:href="#DejaVuSans-2c" x="436.230469"/>
     <use xlink:href="#DejaVuSans-20" x="468.017578"/>
     <use xlink:href="#DejaVuSans-34" x="499.804688"/>
     <use xlink:href="#DejaVuSans-29" x="563.427734"/>
    </g>
   </g>
   <g id="text_26">
    <!-- 2D Plot -->
    <g transform="translate(225.0925 20.88) scale(0.12 -0.12)">
     <defs>
      <path id="DejaVuSans-44" d="M 1259 4147 
L 1259 519 
L 2022 519 
Q 2988 519 3436 956 
Q 3884 1394 3884 2338 
Q 3884 3275 3436 3711 
Q 2988 4147 2022 4147 
L 1259 4147 
z
M 628 4666 
L 1925 4666 
Q 3281 4666 3915 4102 
Q 4550 3538 4550 2338 
Q 4550 1131 3912 565 
Q 3275 0 1925 0 
L 628 0 
L 628 4666 
z
" transform="scale(0.015625)"/>
      <path id="DejaVuSans-50" d="M 1259 4147 
L 1259 2394 
L 2053 2394 
Q 2494 2394 2734 2622 
Q 2975 2850 2975 3272 
Q 2975 3691 2734 3919 
Q 2494 4147 2053 4147 
L 1259 4147 
z
M 628 4666 
L 2053 4666 
Q 2838 4666 3239 4311 
Q 3641 3956 3641 3272 
Q 3641 2581 3239 2228 
Q 2838 1875 2053 1875 
L 1259 1875 
L 1259 0 
L 628 0 
L 628 4666 
z
" transform="scale(0.015625)"/>
      <path id="DejaVuSans-6c" d="M 603 4863 
L 1178 4863 
L 1178 0 
L 603 0 
L 603 4863 
z
" transform="scale(0.015625)"/>
      <path id="DejaVuSans-6f" d="M 1959 3097 
Q 1497 3097 1228 2736 
Q 959 2375 959 1747 
Q 959 1119 1226 758 
Q 1494 397 1959 397 
Q 2419 397 2687 759 
Q 2956 1122 2956 1747 
Q 2956 2369 2687 2733 
Q 2419 3097 1959 3097 
z
M 1959 3584 
Q 2709 3584 3137 3096 
Q 3566 2609 3566 1747 
Q 3566 888 3137 398 
Q 2709 -91 1959 -91 
Q 1206 -91 779 398 
Q 353 888 353 1747 
Q 353 2609 779 3096 
Q 1206 3584 1959 3584 
z
" transform="scale(0.015625)"/>
      <path id="DejaVuSans-74" d="M 1172 4494 
L 1172 3500 
L 2356 3500 
L 2356 3053 
L 1172 3053 
L 1172 1153 
Q 1172 725 1289 603 
Q 1406 481 1766 481 
L 2356 481 
L 2356 0 
L 1766 0 
Q 1100 0 847 248 
Q 594 497 594 1153 
L 594 3053 
L 172 3053 
L 172 3500 
L 594 3500 
L 594 4494 
L 1172 4494 
z
" transform="scale(0.015625)"/>
     </defs>
     <use xlink:href="#DejaVuSans-32"/>
     <use xlink:href="#DejaVuSans-44" x="63.623047"/>
     <use xlink:href="#DejaVuSans-20" x="140.625"/>
     <use xlink:href="#DejaVuSans-50" x="172.412109"/>
     <use xlink:href="#DejaVuSans-6c" x="232.714844"/>
     <use xlink:href="#DejaVuSans-6f" x="260.498047"/>
     <use xlink:href="#DejaVuSans-74" x="321.679688"/>
    </g>
   </g>
  </g>
 </g>
 <defs>
  <clipPath id="p4d2e56e2ad">
   <rect x="46.64" y="26.88" width="400.21" height="276.76"/>
  </clipPath>
 </defs>
</svg>
