<?xml version="1.0" encoding="utf-8" standalone="no"?>
<!DOCTYPE svg PUBLIC "-//W3C//DTD SVG 1.1//EN"
  "http://www.w3.org/Graphics/SVG/1.1/DTD/svg11.dtd">
<svg xmlns:xlink="http://www.w3.org/1999/xlink" width="460.8pt" height="345.6pt" viewBox="0 0 460.8 345.6" xmlns="http://www.w3.org/2000/svg" version="1.1">
 <metadata>
  <rdf:RDF xmlns:dc="http://purl.org/dc/elements/1.1/" xmlns:cc="http://creativecommons.org/ns#" xmlns:rdf="http://www.w3.org/1999/02/22-rdf-syntax-ns#">
   <cc:Work>
    <dc:type rdf:resource="http://purl.org/dc/dcmitype/StillImage"/>
    <dc:date>2024-04-12T08:20:00.883992</dc:date>
    <dc:format>image/svg+xml</dc:format>
    <dc:creator>
     <cc:Agent>
      <dc:title>Matplotlib v3.8.3, https://matplotlib.org/</dc:title>
     </cc:Agent>
    </dc:creator>
   </cc:Work>
  </rdf:RDF>
 </metadata>
 <defs>
  <style type="text/css">*{stroke-linejoin: round; stroke-linecap: butt}</style>
 </defs>
 <g id="figure_1">
  <g id="patch_1">
   <path d="M 0 345.6 
L 460.8 345.6 
L 460.8 0 
L 0 0 
z
" style="fill: #ffffff"/>
  </g>
  <g id="patch_2">
   <path d="M 76.44 334.8 
L 384.36 334.8 
L 384.36 26.88 
L 76.44 26.88 
z
" style="fill: #ffffff"/>
  </g>
  <g id="pane3d_1">
   <g id="patch_3">
    <path d="M 99.690083 258.876796 
L 201.375324 173.642211 
L 199.961801 50.718703 
L 93.410398 128.475064 
" style="fill: #f2f2f2; opacity: 0.5; stroke: #f2f2f2; stroke-linejoin: miter"/>
   </g>
  </g>
  <g id="pane3d_2">
   <g id="patch_4">
    <path d="M 201.375324 173.642211 
L 364.543853 221.068861 
L 370.366762 93.911394 
L 199.961801 50.718703 
" style="fill: #e6e6e6; opacity: 0.5; stroke: #e6e6e6; stroke-linejoin: miter"/>
   </g>
  </g>
  <g id="pane3d_3">
   <g id="patch_5">
    <path d="M 99.690083 258.876796 
L 272.656694 315.367691 
L 364.543853 221.068861 
L 201.375324 173.642211 
" style="fill: #ececec; opacity: 0.5; stroke: #ececec; stroke-linejoin: miter"/>
   </g>
  </g>
  <g id="grid3d_1">
   <g id="Line3DCollection_1">
    <path d="M 102.975079 259.949676 
L 204.487684 174.546852 
L 203.205469 51.540879 
" style="fill: none; stroke: #b0b0b0; stroke-width: 0.8"/>
    <path d="M 134.858269 270.362725 
L 234.668173 183.319128 
L 234.672783 59.516925 
" style="fill: none; stroke: #b0b0b0; stroke-width: 0.8"/>
    <path d="M 167.38374 280.985544 
L 265.406001 192.253401 
L 266.746452 67.646666 
" style="fill: none; stroke: #b0b0b0; stroke-width: 0.8"/>
    <path d="M 200.571098 291.824535 
L 296.71675 201.3542 
L 299.444174 75.934585 
" style="fill: none; stroke: #b0b0b0; stroke-width: 0.8"/>
    <path d="M 234.440756 302.886365 
L 328.616589 210.626224 
L 332.784341 84.385345 
" style="fill: none; stroke: #b0b0b0; stroke-width: 0.8"/>
    <path d="M 269.013971 314.177977 
L 361.122301 220.074351 
L 366.786074 93.003794 
" style="fill: none; stroke: #b0b0b0; stroke-width: 0.8"/>
   </g>
  </g>
  <g id="grid3d_2">
   <g id="Line3DCollection_2">
    <path d="M 95.73554 126.778282 
L 101.90081 257.023721 
L 274.663048 313.308678 
" style="fill: none; stroke: #b0b0b0; stroke-width: 0.8"/>
    <path d="M 115.66661 112.233495 
L 120.866128 241.126616 
L 291.859255 295.661139 
" style="fill: none; stroke: #b0b0b0; stroke-width: 0.8"/>
    <path d="M 134.971292 98.145817 
L 139.261084 225.707599 
L 308.511236 278.57211 
" style="fill: none; stroke: #b0b0b0; stroke-width: 0.8"/>
    <path d="M 153.678661 84.494032 
L 157.111027 210.745423 
L 324.644424 262.01549 
" style="fill: none; stroke: #b0b0b0; stroke-width: 0.8"/>
    <path d="M 171.816015 71.258217 
L 174.439826 196.22008 
L 340.282692 245.96678 
" style="fill: none; stroke: #b0b0b0; stroke-width: 0.8"/>
    <path d="M 189.409016 58.419646 
L 191.269974 182.112716 
L 355.44847 230.402962 
" style="fill: none; stroke: #b0b0b0; stroke-width: 0.8"/>
   </g>
  </g>
  <g id="grid3d_3">
   <g id="Line3DCollection_3">
    <path d="M 364.655413 218.632665 
L 201.348186 171.282251 
L 99.56997 256.382572 
" style="fill: none; stroke: #b0b0b0; stroke-width: 0.8"/>
    <path d="M 365.485211 200.512001 
L 201.146403 153.734638 
L 98.676315 237.825236 
" style="fill: none; stroke: #b0b0b0; stroke-width: 0.8"/>
    <path d="M 366.325662 182.158692 
L 200.942152 135.972502 
L 97.770748 219.02056 
" style="fill: none; stroke: #b0b0b0; stroke-width: 0.8"/>
    <path d="M 367.176974 163.568226 
L 200.735389 117.991885 
L 96.853031 199.963565 
" style="fill: none; stroke: #b0b0b0; stroke-width: 0.8"/>
    <path d="M 368.039357 144.735977 
L 200.526068 99.788731 
L 95.922917 180.649139 
" style="fill: none; stroke: #b0b0b0; stroke-width: 0.8"/>
    <path d="M 368.91303 125.657198 
L 200.314139 81.358883 
L 94.980153 161.072029 
" style="fill: none; stroke: #b0b0b0; stroke-width: 0.8"/>
    <path d="M 369.798215 106.327017 
L 200.099555 62.698079 
L 94.024479 141.226842 
" style="fill: none; stroke: #b0b0b0; stroke-width: 0.8"/>
   </g>
  </g>
  <g id="axis3d_1">
   <g id="line2d_1">
    <path d="M 99.690083 258.876796 
L 272.656694 315.367691 
" style="fill: none; stroke: #000000; stroke-width: 0.8; stroke-linecap: square"/>
   </g>
   <g id="xtick_1">
    <g id="line2d_2">
     <path d="M 103.858884 259.206128 
L 101.203685 261.439954 
" style="fill: none; stroke: #000000; stroke-width: 0.8; stroke-linecap: square"/>
    </g>
    <g id="text_1">
     <!-- −2 -->
     <g transform="translate(88.072637 283.208026) scale(0.1 -0.1)">
      <defs>
       <path id="DejaVuSans-2212" d="M 678 2272 
L 4684 2272 
L 4684 1741 
L 678 1741 
L 678 2272 
z
" transform="scale(0.015625)"/>
       <path id="DejaVuSans-32" d="M 1228 531 
L 3431 531 
L 3431 0 
L 469 0 
L 469 531 
Q 828 903 1448 1529 
Q 2069 2156 2228 2338 
Q 2531 2678 2651 2914 
Q 2772 3150 2772 3378 
Q 2772 3750 2511 3984 
Q 2250 4219 1831 4219 
Q 1534 4219 1204 4116 
Q 875 4013 500 3803 
L 500 4441 
Q 881 4594 1212 4672 
Q 1544 4750 1819 4750 
Q 2544 4750 2975 4387 
Q 3406 4025 3406 3419 
Q 3406 3131 3298 2873 
Q 3191 2616 2906 2266 
Q 2828 2175 2409 1742 
Q 1991 1309 1228 531 
z
" transform="scale(0.015625)"/>
      </defs>
      <use xlink:href="#DejaVuSans-2212"/>
      <use xlink:href="#DejaVuSans-32" x="83.789062"/>
     </g>
    </g>
   </g>
   <g id="xtick_2">
    <g id="line2d_3">
     <path d="M 135.727952 269.60428 
L 133.115142 271.882895 
" style="fill: none; stroke: #000000; stroke-width: 0.8; stroke-linecap: square"/>
    </g>
    <g id="text_2">
     <!-- −1 -->
     <g transform="translate(119.983648 293.811435) scale(0.1 -0.1)">
      <defs>
       <path id="DejaVuSans-31" d="M 794 531 
L 1825 531 
L 1825 4091 
L 703 3866 
L 703 4441 
L 1819 4666 
L 2450 4666 
L 2450 531 
L 3481 531 
L 3481 0 
L 794 0 
L 794 531 
z
" transform="scale(0.015625)"/>
      </defs>
      <use xlink:href="#DejaVuSans-2212"/>
      <use xlink:href="#DejaVuSans-31" x="83.789062"/>
     </g>
    </g>
   </g>
   <g id="xtick_3">
    <g id="line2d_4">
     <path d="M 168.23855 280.211749 
L 165.670385 282.536515 
" style="fill: none; stroke: #000000; stroke-width: 0.8; stroke-linecap: square"/>
    </g>
    <g id="text_3">
     <!-- 0 -->
     <g transform="translate(156.729445 304.629146) scale(0.1 -0.1)">
      <defs>
       <path id="DejaVuSans-30" d="M 2034 4250 
Q 1547 4250 1301 3770 
Q 1056 3291 1056 2328 
Q 1056 1369 1301 889 
Q 1547 409 2034 409 
Q 2525 409 2770 889 
Q 3016 1369 3016 2328 
Q 3016 3291 2770 3770 
Q 2525 4250 2034 4250 
z
M 2034 4750 
Q 2819 4750 3233 4129 
Q 3647 3509 3647 2328 
Q 3647 1150 3233 529 
Q 2819 -91 2034 -91 
Q 1250 -91 836 529 
Q 422 1150 422 2328 
Q 422 3509 836 4129 
Q 1250 4750 2034 4750 
z
" transform="scale(0.015625)"/>
      </defs>
      <use xlink:href="#DejaVuSans-30"/>
     </g>
    </g>
   </g>
   <g id="xtick_4">
    <g id="line2d_5">
     <path d="M 201.410248 291.034919 
L 198.889096 293.407252 
" style="fill: none; stroke: #000000; stroke-width: 0.8; stroke-linecap: square"/>
    </g>
    <g id="text_4">
     <!-- 1 -->
     <g transform="translate(189.950093 315.667723) scale(0.1 -0.1)">
      <use xlink:href="#DejaVuSans-31"/>
     </g>
    </g>
   </g>
   <g id="xtick_5">
    <g id="line2d_6">
     <path d="M 235.263417 302.080438 
L 232.791765 304.501812 
" style="fill: none; stroke: #000000; stroke-width: 0.8; stroke-linecap: square"/>
    </g>
    <g id="text_5">
     <!-- 2 -->
     <g transform="translate(223.856003 326.933999) scale(0.1 -0.1)">
      <use xlink:href="#DejaVuSans-32"/>
     </g>
    </g>
   </g>
   <g id="xtick_6">
    <g id="line2d_7">
     <path d="M 269.819275 313.355228 
L 267.399736 315.827181 
" style="fill: none; stroke: #000000; stroke-width: 0.8; stroke-linecap: square"/>
    </g>
    <g id="text_6">
     <!-- 3 -->
     <g transform="translate(258.468598 338.435092) scale(0.1 -0.1)">
      <defs>
       <path id="DejaVuSans-33" d="M 2597 2516 
Q 3050 2419 3304 2112 
Q 3559 1806 3559 1356 
Q 3559 666 3084 287 
Q 2609 -91 1734 -91 
Q 1441 -91 1130 -33 
Q 819 25 488 141 
L 488 750 
Q 750 597 1062 519 
Q 1375 441 1716 441 
Q 2309 441 2620 675 
Q 2931 909 2931 1356 
Q 2931 1769 2642 2001 
Q 2353 2234 1838 2234 
L 1294 2234 
L 1294 2753 
L 1863 2753 
Q 2328 2753 2575 2939 
Q 2822 3125 2822 3475 
Q 2822 3834 2567 4026 
Q 2313 4219 1838 4219 
Q 1578 4219 1281 4162 
Q 984 4106 628 3988 
L 628 4550 
Q 988 4650 1302 4700 
Q 1616 4750 1894 4750 
Q 2613 4750 3031 4423 
Q 3450 4097 3450 3541 
Q 3450 3153 3228 2886 
Q 3006 2619 2597 2516 
z
" transform="scale(0.015625)"/>
      </defs>
      <use xlink:href="#DejaVuSans-33"/>
     </g>
    </g>
   </g>
   <g id="text_7">
    <!-- X -->
    <g transform="translate(164.195323 324.369287) scale(0.1 -0.1)">
     <defs>
      <path id="DejaVuSans-58" d="M 403 4666 
L 1081 4666 
L 2241 2931 
L 3406 4666 
L 4084 4666 
L 2584 2425 
L 4184 0 
L 3506 0 
L 2194 1984 
L 872 0 
L 191 0 
L 1856 2491 
L 403 4666 
z
" transform="scale(0.015625)"/>
     </defs>
     <use xlink:href="#DejaVuSans-58"/>
    </g>
   </g>
  </g>
  <g id="axis3d_2">
   <g id="line2d_8">
    <path d="M 364.543853 221.068861 
L 272.656694 315.367691 
" style="fill: none; stroke: #000000; stroke-width: 0.8; stroke-linecap: square"/>
   </g>
   <g id="xtick_7">
    <g id="line2d_9">
     <path d="M 273.206874 312.834265 
L 277.579177 314.258736 
" style="fill: none; stroke: #000000; stroke-width: 0.8; stroke-linecap: square"/>
    </g>
    <g id="text_8">
     <!-- −4 -->
     <g transform="translate(280.221925 334.386499) scale(0.1 -0.1)">
      <defs>
       <path id="DejaVuSans-34" d="M 2419 4116 
L 825 1625 
L 2419 1625 
L 2419 4116 
z
M 2253 4666 
L 3047 4666 
L 3047 1625 
L 3713 1625 
L 3713 1100 
L 3047 1100 
L 3047 0 
L 2419 0 
L 2419 1100 
L 313 1100 
L 313 1709 
L 2253 4666 
z
" transform="scale(0.015625)"/>
      </defs>
      <use xlink:href="#DejaVuSans-2212"/>
      <use xlink:href="#DejaVuSans-34" x="83.789062"/>
     </g>
    </g>
   </g>
   <g id="xtick_8">
    <g id="line2d_10">
     <path d="M 290.419171 295.201855 
L 294.743103 296.580879 
" style="fill: none; stroke: #000000; stroke-width: 0.8; stroke-linecap: square"/>
    </g>
    <g id="text_9">
     <!-- −2 -->
     <g transform="translate(297.218922 316.5131) scale(0.1 -0.1)">
      <use xlink:href="#DejaVuSans-2212"/>
      <use xlink:href="#DejaVuSans-32" x="83.789062"/>
     </g>
    </g>
   </g>
   <g id="xtick_9">
    <g id="line2d_11">
     <path d="M 307.086961 278.127244 
L 311.363369 279.46296 
" style="fill: none; stroke: #000000; stroke-width: 0.8; stroke-linecap: square"/>
    </g>
    <g id="text_10">
     <!-- 0 -->
     <g transform="translate(317.867571 299.205645) scale(0.1 -0.1)">
      <use xlink:href="#DejaVuSans-30"/>
     </g>
    </g>
   </g>
   <g id="xtick_10">
    <g id="line2d_12">
     <path d="M 323.235679 261.584373 
L 327.465402 262.878791 
" style="fill: none; stroke: #000000; stroke-width: 0.8; stroke-linecap: square"/>
    </g>
    <g id="text_11">
     <!-- 2 -->
     <g transform="translate(333.813348 282.43767) scale(0.1 -0.1)">
      <use xlink:href="#DejaVuSans-32"/>
     </g>
    </g>
   </g>
   <g id="xtick_11">
    <g id="line2d_13">
     <path d="M 338.889201 245.548785 
L 343.07307 246.80379 
" style="fill: none; stroke: #000000; stroke-width: 0.8; stroke-linecap: square"/>
    </g>
    <g id="text_12">
     <!-- 4 -->
     <g transform="translate(349.269716 266.18434) scale(0.1 -0.1)">
      <use xlink:href="#DejaVuSans-34"/>
     </g>
    </g>
   </g>
   <g id="xtick_12">
    <g id="line2d_14">
     <path d="M 354.069961 229.997497 
L 358.208795 231.214863 
" style="fill: none; stroke: #000000; stroke-width: 0.8; stroke-linecap: square"/>
    </g>
    <g id="text_13">
     <!-- 6 -->
     <g transform="translate(364.258864 250.42232) scale(0.1 -0.1)">
      <defs>
       <path id="DejaVuSans-36" d="M 2113 2584 
Q 1688 2584 1439 2293 
Q 1191 2003 1191 1497 
Q 1191 994 1439 701 
Q 1688 409 2113 409 
Q 2538 409 2786 701 
Q 3034 994 3034 1497 
Q 3034 2003 2786 2293 
Q 2538 2584 2113 2584 
z
M 3366 4563 
L 3366 3988 
Q 3128 4100 2886 4159 
Q 2644 4219 2406 4219 
Q 1781 4219 1451 3797 
Q 1122 3375 1075 2522 
Q 1259 2794 1537 2939 
Q 1816 3084 2150 3084 
Q 2853 3084 3261 2657 
Q 3669 2231 3669 1497 
Q 3669 778 3244 343 
Q 2819 -91 2113 -91 
Q 1303 -91 875 529 
Q 447 1150 447 2328 
Q 447 3434 972 4092 
Q 1497 4750 2381 4750 
Q 2619 4750 2861 4703 
Q 3103 4656 3366 4563 
z
" transform="scale(0.015625)"/>
      </defs>
      <use xlink:href="#DejaVuSans-36"/>
     </g>
    </g>
   </g>
   <g id="text_14">
    <!-- Y -->
    <g transform="translate(344.569179 296.872987) scale(0.1 -0.1)">
     <defs>
      <path id="DejaVuSans-59" d="M -13 4666 
L 666 4666 
L 1959 2747 
L 3244 4666 
L 3922 4666 
L 2272 2222 
L 2272 0 
L 1638 0 
L 1638 2222 
L -13 4666 
z
" transform="scale(0.015625)"/>
     </defs>
     <use xlink:href="#DejaVuSans-59"/>
    </g>
   </g>
  </g>
  <g id="axis3d_3">
   <g id="line2d_15">
    <path d="M 364.543853 221.068861 
L 370.366762 93.911394 
" style="fill: none; stroke: #000000; stroke-width: 0.8; stroke-linecap: square"/>
   </g>
   <g id="xtick_13">
    <g id="line2d_16">
     <path d="M 363.284761 218.235248 
L 367.399981 219.428443 
" style="fill: none; stroke: #000000; stroke-width: 0.8; stroke-linecap: square"/>
    </g>
    <g id="text_15">
     <!-- −4 -->
     <g transform="translate(375.555729 223.629133) scale(0.1 -0.1)">
      <use xlink:href="#DejaVuSans-2212"/>
      <use xlink:href="#DejaVuSans-34" x="83.789062"/>
     </g>
    </g>
   </g>
   <g id="xtick_14">
    <g id="line2d_17">
     <path d="M 364.105488 200.119277 
L 368.247961 201.29839 
" style="fill: none; stroke: #000000; stroke-width: 0.8; stroke-linecap: square"/>
    </g>
    <g id="text_16">
     <!-- −2 -->
     <g transform="translate(376.499599 205.539229) scale(0.1 -0.1)">
      <use xlink:href="#DejaVuSans-2212"/>
      <use xlink:href="#DejaVuSans-32" x="83.789062"/>
     </g>
    </g>
   </g>
   <g id="xtick_15">
    <g id="line2d_18">
     <path d="M 364.936749 181.770814 
L 369.106838 182.935383 
" style="fill: none; stroke: #000000; stroke-width: 0.8; stroke-linecap: square"/>
    </g>
    <g id="text_17">
     <!-- 0 -->
     <g transform="translate(381.645399 187.217682) scale(0.1 -0.1)">
      <use xlink:href="#DejaVuSans-30"/>
     </g>
    </g>
   </g>
   <g id="xtick_16">
    <g id="line2d_19">
     <path d="M 365.778747 163.185352 
L 369.976821 164.334902 
" style="fill: none; stroke: #000000; stroke-width: 0.8; stroke-linecap: square"/>
    </g>
    <g id="text_18">
     <!-- 2 -->
     <g transform="translate(382.613675 168.660016) scale(0.1 -0.1)">
      <use xlink:href="#DejaVuSans-32"/>
     </g>
    </g>
   </g>
   <g id="xtick_17">
    <g id="line2d_20">
     <path d="M 366.631691 144.358271 
L 370.858128 145.492311 
" style="fill: none; stroke: #000000; stroke-width: 0.8; stroke-linecap: square"/>
    </g>
    <g id="text_19">
     <!-- 4 -->
     <g transform="translate(383.594511 149.861637) scale(0.1 -0.1)">
      <use xlink:href="#DejaVuSans-34"/>
     </g>
    </g>
   </g>
   <g id="xtick_18">
    <g id="line2d_21">
     <path d="M 367.495796 125.284829 
L 371.750982 126.402853 
" style="fill: none; stroke: #000000; stroke-width: 0.8; stroke-linecap: square"/>
    </g>
    <g id="text_20">
     <!-- 6 -->
     <g transform="translate(384.588152 130.81783) scale(0.1 -0.1)">
      <use xlink:href="#DejaVuSans-36"/>
     </g>
    </g>
   </g>
   <g id="xtick_19">
    <g id="line2d_22">
     <path d="M 368.371283 105.960157 
L 372.655611 107.061643 
" style="fill: none; stroke: #000000; stroke-width: 0.8; stroke-linecap: square"/>
    </g>
    <g id="text_21">
     <!-- 8 -->
     <g transform="translate(385.594851 111.523757) scale(0.1 -0.1)">
      <defs>
       <path id="DejaVuSans-38" d="M 2034 2216 
Q 1584 2216 1326 1975 
Q 1069 1734 1069 1313 
Q 1069 891 1326 650 
Q 1584 409 2034 409 
Q 2484 409 2743 651 
Q 3003 894 3003 1313 
Q 3003 1734 2745 1975 
Q 2488 2216 2034 2216 
z
M 1403 2484 
Q 997 2584 770 2862 
Q 544 3141 544 3541 
Q 544 4100 942 4425 
Q 1341 4750 2034 4750 
Q 2731 4750 3128 4425 
Q 3525 4100 3525 3541 
Q 3525 3141 3298 2862 
Q 3072 2584 2669 2484 
Q 3125 2378 3379 2068 
Q 3634 1759 3634 1313 
Q 3634 634 3220 271 
Q 2806 -91 2034 -91 
Q 1263 -91 848 271 
Q 434 634 434 1313 
Q 434 1759 690 2068 
Q 947 2378 1403 2484 
z
M 1172 3481 
Q 1172 3119 1398 2916 
Q 1625 2713 2034 2713 
Q 2441 2713 2670 2916 
Q 2900 3119 2900 3481 
Q 2900 3844 2670 4047 
Q 2441 4250 2034 4250 
Q 1625 4250 1398 4047 
Q 1172 3844 1172 3481 
z
" transform="scale(0.015625)"/>
      </defs>
      <use xlink:href="#DejaVuSans-38"/>
     </g>
    </g>
   </g>
   <g id="text_22">
    <!-- Z -->
    <g transform="translate(404.378739 156.228179) scale(0.1 -0.1)">
     <defs>
      <path id="DejaVuSans-5a" d="M 359 4666 
L 4025 4666 
L 4025 4184 
L 1075 531 
L 4097 531 
L 4097 0 
L 288 0 
L 288 481 
L 3238 4134 
L 359 4134 
L 359 4666 
z
" transform="scale(0.015625)"/>
     </defs>
     <use xlink:href="#DejaVuSans-5a"/>
    </g>
   </g>
  </g>
  <g id="axes_1">
   <g id="line2d_23">
    <path d="M 141.211502 187.659478 
L 305.972623 237.153326 
" clip-path="url(#pccd876c233)" style="fill: none; stroke: #000000; stroke-width: 1.5; stroke-linecap: square"/>
   </g>
   <g id="line2d_24">
    <path d="M 149.385152 255.405923 
L 294.960473 128.729362 
" clip-path="url(#pccd876c233)" style="fill: none; stroke: #000000; stroke-width: 1.5; stroke-linecap: square"/>
   </g>
   <g id="line2d_25">
    <path d="M 205.544099 243.943391 
L 204.468631 139.587134 
" clip-path="url(#pccd876c233)" style="fill: none; stroke: #000000; stroke-width: 1.5; stroke-linecap: square"/>
   </g>
   <g id="line2d_26">
    <path d="M 280.350374 151.005244 
L 422.559397 45.344163 
" clip-path="url(#pccd876c233)" style="fill: none; stroke: #1f77b4; stroke-width: 1.5; stroke-linecap: square"/>
   </g>
   <g id="Line3DCollection_4">
    <path d="M 280.350374 151.005244 
L 205.162031 206.870064 
" clip-path="url(#pccd876c233)" style="fill: none; stroke: #0000ff; stroke-opacity: 0.5; stroke-width: 1.5"/>
    <path d="M 352.765962 97.200576 
L 205.162031 206.870064 
" clip-path="url(#pccd876c233)" style="fill: none; stroke: #0000ff; stroke-opacity: 0.5; stroke-width: 1.5"/>
    <path d="M 127.038574 264.91567 
L 205.162031 206.870064 
" clip-path="url(#pccd876c233)" style="fill: none; stroke: #0000ff; stroke-opacity: 0.5; stroke-width: 1.5"/>
    <path d="M 246.759058 199.523538 
L 205.162031 206.870064 
" clip-path="url(#pccd876c233)" style="fill: none; stroke: #0000ff; stroke-opacity: 0.5; stroke-width: 1.5"/>
    <path d="M 280.350374 151.005244 
L 274.31556 157.140119 
" clip-path="url(#pccd876c233)" style="fill: none; stroke: #0000ff; stroke-opacity: 0.5; stroke-width: 1.5"/>
    <path d="M 280.350374 151.005244 
L 272.104962 155.477707 
" clip-path="url(#pccd876c233)" style="fill: none; stroke: #0000ff; stroke-opacity: 0.5; stroke-width: 1.5"/>
    <path d="M 352.765962 97.200576 
L 341.043937 109.154159 
" clip-path="url(#pccd876c233)" style="fill: none; stroke: #0000ff; stroke-opacity: 0.5; stroke-width: 1.5"/>
    <path d="M 352.765962 97.200576 
L 336.919491 105.719332 
" clip-path="url(#pccd876c233)" style="fill: none; stroke: #0000ff; stroke-opacity: 0.5; stroke-width: 1.5"/>
    <path d="M 127.038574 264.91567 
L 135.984108 259.978234 
" clip-path="url(#pccd876c233)" style="fill: none; stroke: #0000ff; stroke-opacity: 0.5; stroke-width: 1.5"/>
    <path d="M 127.038574 264.91567 
L 133.448694 258.440828 
" clip-path="url(#pccd876c233)" style="fill: none; stroke: #0000ff; stroke-opacity: 0.5; stroke-width: 1.5"/>
    <path d="M 246.759058 199.523538 
L 243.48448 200.620859 
" clip-path="url(#pccd876c233)" style="fill: none; stroke: #0000ff; stroke-opacity: 0.5; stroke-width: 1.5"/>
    <path d="M 246.759058 199.523538 
L 241.958233 199.852344 
" clip-path="url(#pccd876c233)" style="fill: none; stroke: #0000ff; stroke-opacity: 0.5; stroke-width: 1.5"/>
   </g>
   <g id="text_23">
    <!-- X -->
    <g transform="translate(305.972623 237.153326) scale(0.1 -0.1)">
     <use xlink:href="#DejaVuSans-58"/>
    </g>
   </g>
   <g id="text_24">
    <!-- Y -->
    <g transform="translate(294.960473 128.729362) scale(0.1 -0.1)">
     <use xlink:href="#DejaVuSans-59"/>
    </g>
   </g>
   <g id="text_25">
    <!-- Z -->
    <g transform="translate(204.468631 139.587134) scale(0.1 -0.1)">
     <use xlink:href="#DejaVuSans-5a"/>
    </g>
   </g>
   <g id="text_26">
    <!-- u -->
    <g style="fill: #0000ff" transform="translate(280.350374 151.005244) scale(0.1 -0.1)">
     <defs>
      <path id="DejaVuSans-75" d="M 544 1381 
L 544 3500 
L 1119 3500 
L 1119 1403 
Q 1119 906 1312 657 
Q 1506 409 1894 409 
Q 2359 409 2629 706 
Q 2900 1003 2900 1516 
L 2900 3500 
L 3475 3500 
L 3475 0 
L 2900 0 
L 2900 538 
Q 2691 219 2414 64 
Q 2138 -91 1772 -91 
Q 1169 -91 856 284 
Q 544 659 544 1381 
z
M 1991 3584 
L 1991 3584 
z
" transform="scale(0.015625)"/>
     </defs>
     <use xlink:href="#DejaVuSans-75"/>
    </g>
   </g>
   <g id="text_27">
    <!-- v -->
    <g style="fill: #0000ff" transform="translate(352.765962 97.200576) scale(0.1 -0.1)">
     <defs>
      <path id="DejaVuSans-76" d="M 191 3500 
L 800 3500 
L 1894 563 
L 2988 3500 
L 3597 3500 
L 2284 0 
L 1503 0 
L 191 3500 
z
" transform="scale(0.015625)"/>
     </defs>
     <use xlink:href="#DejaVuSans-76"/>
    </g>
   </g>
   <g id="text_28">
    <!-- w -->
    <g style="fill: #0000ff" transform="translate(127.038574 264.91567) scale(0.1 -0.1)">
     <defs>
      <path id="DejaVuSans-77" d="M 269 3500 
L 844 3500 
L 1563 769 
L 2278 3500 
L 2956 3500 
L 3675 769 
L 4391 3500 
L 4966 3500 
L 4050 0 
L 3372 0 
L 2619 2869 
L 1863 0 
L 1184 0 
L 269 3500 
z
" transform="scale(0.015625)"/>
     </defs>
     <use xlink:href="#DejaVuSans-77"/>
    </g>
   </g>
   <g id="text_29">
    <!-- t -->
    <g style="fill: #0000ff" transform="translate(246.759058 199.523538) scale(0.1 -0.1)">
     <defs>
      <path id="DejaVuSans-74" d="M 1172 4494 
L 1172 3500 
L 2356 3500 
L 2356 3053 
L 1172 3053 
L 1172 1153 
Q 1172 725 1289 603 
Q 1406 481 1766 481 
L 2356 481 
L 2356 0 
L 1766 0 
Q 1100 0 847 248 
Q 594 497 594 1153 
L 594 3053 
L 172 3053 
L 172 3500 
L 594 3500 
L 594 4494 
L 1172 4494 
z
" transform="scale(0.015625)"/>
     </defs>
     <use xlink:href="#DejaVuSans-74"/>
    </g>
   </g>
   <g id="text_30">
    <!-- 3D Plot -->
    <g transform="translate(208.7475 20.88) scale(0.12 -0.12)">
     <defs>
      <path id="DejaVuSans-44" d="M 1259 4147 
L 1259 519 
L 2022 519 
Q 2988 519 3436 956 
Q 3884 1394 3884 2338 
Q 3884 3275 3436 3711 
Q 2988 4147 2022 4147 
L 1259 4147 
z
M 628 4666 
L 1925 4666 
Q 3281 4666 3915 4102 
Q 4550 3538 4550 2338 
Q 4550 1131 3912 565 
Q 3275 0 1925 0 
L 628 0 
L 628 4666 
z
" transform="scale(0.015625)"/>
      <path id="DejaVuSans-20" transform="scale(0.015625)"/>
      <path id="DejaVuSans-50" d="M 1259 4147 
L 1259 2394 
L 2053 2394 
Q 2494 2394 2734 2622 
Q 2975 2850 2975 3272 
Q 2975 3691 2734 3919 
Q 2494 4147 2053 4147 
L 1259 4147 
z
M 628 4666 
L 2053 4666 
Q 2838 4666 3239 4311 
Q 3641 3956 3641 3272 
Q 3641 2581 3239 2228 
Q 2838 1875 2053 1875 
L 1259 1875 
L 1259 0 
L 628 0 
L 628 4666 
z
" transform="scale(0.015625)"/>
      <path id="DejaVuSans-6c" d="M 603 4863 
L 1178 4863 
L 1178 0 
L 603 0 
L 603 4863 
z
" transform="scale(0.015625)"/>
      <path id="DejaVuSans-6f" d="M 1959 3097 
Q 1497 3097 1228 2736 
Q 959 2375 959 1747 
Q 959 1119 1226 758 
Q 1494 397 1959 397 
Q 2419 397 2687 759 
Q 2956 1122 2956 1747 
Q 2956 2369 2687 2733 
Q 2419 3097 1959 3097 
z
M 1959 3584 
Q 2709 3584 3137 3096 
Q 3566 2609 3566 1747 
Q 3566 888 3137 398 
Q 2709 -91 1959 -91 
Q 1206 -91 779 398 
Q 353 888 353 1747 
Q 353 2609 779 3096 
Q 1206 3584 1959 3584 
z
" transform="scale(0.015625)"/>
     </defs>
     <use xlink:href="#DejaVuSans-33"/>
     <use xlink:href="#DejaVuSans-44" x="63.623047"/>
     <use xlink:href="#DejaVuSans-20" x="140.625"/>
     <use xlink:href="#DejaVuSans-50" x="172.412109"/>
     <use xlink:href="#DejaVuSans-6c" x="232.714844"/>
     <use xlink:href="#DejaVuSans-6f" x="260.498047"/>
     <use xlink:href="#DejaVuSans-74" x="321.679688"/>
    </g>
   </g>
  </g>
 </g>
 <defs>
  <clipPath id="pccd876c233">
   <rect x="76.44" y="26.88" width="307.92" height="307.92"/>
  </clipPath>
 </defs>
</svg>
