<?xml version="1.0" encoding="utf-8" standalone="no"?>
<!DOCTYPE svg PUBLIC "-//W3C//DTD SVG 1.1//EN"
  "http://www.w3.org/Graphics/SVG/1.1/DTD/svg11.dtd">
<svg xmlns:xlink="http://www.w3.org/1999/xlink" width="460.8pt" height="345.6pt" viewBox="0 0 460.8 345.6" xmlns="http://www.w3.org/2000/svg" version="1.1">
 <metadata>
  <rdf:RDF xmlns:dc="http://purl.org/dc/elements/1.1/" xmlns:cc="http://creativecommons.org/ns#" xmlns:rdf="http://www.w3.org/1999/02/22-rdf-syntax-ns#">
   <cc:Work>
    <dc:type rdf:resource="http://purl.org/dc/dcmitype/StillImage"/>
    <dc:date>2024-04-18T07:57:07.977337</dc:date>
    <dc:format>image/svg+xml</dc:format>
    <dc:creator>
     <cc:Agent>
      <dc:title>Matplotlib v3.8.3, https://matplotlib.org/</dc:title>
     </cc:Agent>
    </dc:creator>
   </cc:Work>
  </rdf:RDF>
 </metadata>
 <defs>
  <style type="text/css">*{stroke-linejoin: round; stroke-linecap: butt}</style>
 </defs>
 <g id="figure_1">
  <g id="patch_1">
   <path d="M 0 345.6 
L 460.8 345.6 
L 460.8 0 
L 0 0 
z
" style="fill: #ffffff"/>
  </g>
  <g id="axes_1">
   <g id="patch_2">
    <path d="M 46.55 303.64 
L 422.946 303.64 
L 422.946 26.88 
L 46.55 26.88 
z
" style="fill: #ffffff"/>
   </g>
   <g id="Quiver_1">
    <path d="M 196.755854 202.868147 
L 214.388976 155.721061 
L 213.552031 155.809901 
L 215.9282 152.68 
L 215.667308 156.60102 
L 215.094068 155.984768 
L 197.460946 203.131853 
L 196.755854 202.868147 
" clip-path="url(#pb43f8d9b8b)" style="fill: #0000ff"/>
    <path d="M 197.237334 202.646376 
L 401.072516 276.965973 
L 400.976759 276.129791 
L 404.1262 278.48 
L 400.203157 278.251536 
L 400.814649 277.673222 
L 196.979466 203.353624 
L 197.237334 202.646376 
" clip-path="url(#pb43f8d9b8b)" style="fill: #0000ff"/>
    <path d="M 197.215592 202.63919 
L 363.346502 251.994464 
L 363.200075 251.165652 
L 366.4866 253.32 
L 362.556924 253.330512 
L 363.132118 252.716084 
L 197.001208 203.36081 
L 197.215592 202.63919 
" clip-path="url(#pb43f8d9b8b)" style="fill: #0000ff"/>
    <path d="M 197.17901 202.630286 
L 325.590186 227.154801 
L 325.361691 226.344764 
L 328.847 228.16 
L 324.938034 228.563046 
L 325.448967 227.894228 
L 197.03779 203.369714 
L 197.17901 202.630286 
" clip-path="url(#pb43f8d9b8b)" style="fill: #0000ff"/>
    <path d="M 197.1084 202.623604 
L 287.819836 202.623604 
L 287.44344 201.870812 
L 291.2074 203 
L 287.44344 204.129188 
L 287.819836 203.376396 
L 197.1084 203.376396 
L 197.1084 202.623604 
" clip-path="url(#pb43f8d9b8b)" style="fill: #0000ff"/>
    <path d="M 196.955191 202.656196 
L 250.320359 178.875079 
L 249.670137 178.340681 
L 253.5678 177.84 
L 250.589392 180.403502 
L 250.626777 179.562686 
L 197.261609 203.343804 
L 196.955191 202.656196 
" clip-path="url(#pb43f8d9b8b)" style="fill: #0000ff"/>
    <path d="M 196.755854 202.868147 
L 214.388976 155.721061 
L 213.552031 155.809901 
L 215.9282 152.68 
L 215.667308 156.60102 
L 215.094068 155.984768 
L 197.460946 203.131853 
L 196.755854 202.868147 
" clip-path="url(#pb43f8d9b8b)" style="fill: #0000ff"/>
    <path d="M 196.743185 203.091061 
L 178.742932 130.897994 
L 178.103564 131.445331 
L 178.2886 127.52 
L 180.294853 130.898966 
L 179.473362 130.715873 
L 197.473615 202.908939 
L 196.743185 203.091061 
" clip-path="url(#pb43f8d9b8b)" style="fill: #0000ff"/>
    <path d="M 196.780133 203.184159 
L 141.978165 105.498564 
L 141.505789 106.19515 
L 140.649 102.36 
L 143.475393 105.090195 
L 142.634699 105.130246 
L 197.436667 202.815841 
L 196.780133 203.184159 
" clip-path="url(#pb43f8d9b8b)" style="fill: #0000ff"/>
    <path d="M 196.806995 203.225453 
L 104.737068 80.138099 
L 104.35971 80.89041 
L 103.0094 77.2 
L 106.168141 79.537695 
L 105.339878 79.687194 
L 197.409805 202.774547 
L 196.806995 203.225453 
" clip-path="url(#pb43f8d9b8b)" style="fill: #0000ff"/>
    <path d="M 196.824806 203.247484 
L 67.313566 54.839828 
L 66.993863 55.618391 
L 65.3698 52.04 
L 68.695425 54.133484 
L 67.880753 54.344859 
L 197.391994 202.752516 
L 196.824806 203.247484 
" clip-path="url(#pb43f8d9b8b)" style="fill: #0000ff"/>
   </g>
   <g id="matplotlib.axis_1">
    <g id="xtick_1">
     <g id="line2d_1">
      <path d="M 55.9599 303.64 
L 55.9599 26.88 
" clip-path="url(#pb43f8d9b8b)" style="fill: none; stroke: #b0b0b0; stroke-width: 0.8; stroke-linecap: square"/>
     </g>
     <g id="line2d_2">
      <defs>
       <path id="mde0f22149e" d="M 0 0 
L 0 3.5 
" style="stroke: #000000; stroke-width: 0.8"/>
      </defs>
      <g>
       <use xlink:href="#mde0f22149e" x="55.9599" y="303.64" style="stroke: #000000; stroke-width: 0.8"/>
      </g>
     </g>
     <g id="text_1">
      <!-- −7.5 -->
      <g transform="translate(43.818494 318.238437) scale(0.1 -0.1)">
       <defs>
        <path id="DejaVuSans-2212" d="M 678 2272 
L 4684 2272 
L 4684 1741 
L 678 1741 
L 678 2272 
z
" transform="scale(0.015625)"/>
        <path id="DejaVuSans-37" d="M 525 4666 
L 3525 4666 
L 3525 4397 
L 1831 0 
L 1172 0 
L 2766 4134 
L 525 4134 
L 525 4666 
z
" transform="scale(0.015625)"/>
        <path id="DejaVuSans-2e" d="M 684 794 
L 1344 794 
L 1344 0 
L 684 0 
L 684 794 
z
" transform="scale(0.015625)"/>
        <path id="DejaVuSans-35" d="M 691 4666 
L 3169 4666 
L 3169 4134 
L 1269 4134 
L 1269 2991 
Q 1406 3038 1543 3061 
Q 1681 3084 1819 3084 
Q 2600 3084 3056 2656 
Q 3513 2228 3513 1497 
Q 3513 744 3044 326 
Q 2575 -91 1722 -91 
Q 1428 -91 1123 -41 
Q 819 9 494 109 
L 494 744 
Q 775 591 1075 516 
Q 1375 441 1709 441 
Q 2250 441 2565 725 
Q 2881 1009 2881 1497 
Q 2881 1984 2565 2268 
Q 2250 2553 1709 2553 
Q 1456 2553 1204 2497 
Q 953 2441 691 2322 
L 691 4666 
z
" transform="scale(0.015625)"/>
       </defs>
       <use xlink:href="#DejaVuSans-2212"/>
       <use xlink:href="#DejaVuSans-37" x="83.789062"/>
       <use xlink:href="#DejaVuSans-2e" x="147.412109"/>
       <use xlink:href="#DejaVuSans-35" x="179.199219"/>
      </g>
     </g>
    </g>
    <g id="xtick_2">
     <g id="line2d_3">
      <path d="M 103.0094 303.64 
L 103.0094 26.88 
" clip-path="url(#pb43f8d9b8b)" style="fill: none; stroke: #b0b0b0; stroke-width: 0.8; stroke-linecap: square"/>
     </g>
     <g id="line2d_4">
      <g>
       <use xlink:href="#mde0f22149e" x="103.0094" y="303.64" style="stroke: #000000; stroke-width: 0.8"/>
      </g>
     </g>
     <g id="text_2">
      <!-- −5.0 -->
      <g transform="translate(90.867994 318.238437) scale(0.1 -0.1)">
       <defs>
        <path id="DejaVuSans-30" d="M 2034 4250 
Q 1547 4250 1301 3770 
Q 1056 3291 1056 2328 
Q 1056 1369 1301 889 
Q 1547 409 2034 409 
Q 2525 409 2770 889 
Q 3016 1369 3016 2328 
Q 3016 3291 2770 3770 
Q 2525 4250 2034 4250 
z
M 2034 4750 
Q 2819 4750 3233 4129 
Q 3647 3509 3647 2328 
Q 3647 1150 3233 529 
Q 2819 -91 2034 -91 
Q 1250 -91 836 529 
Q 422 1150 422 2328 
Q 422 3509 836 4129 
Q 1250 4750 2034 4750 
z
" transform="scale(0.015625)"/>
       </defs>
       <use xlink:href="#DejaVuSans-2212"/>
       <use xlink:href="#DejaVuSans-35" x="83.789062"/>
       <use xlink:href="#DejaVuSans-2e" x="147.412109"/>
       <use xlink:href="#DejaVuSans-30" x="179.199219"/>
      </g>
     </g>
    </g>
    <g id="xtick_3">
     <g id="line2d_5">
      <path d="M 150.0589 303.64 
L 150.0589 26.88 
" clip-path="url(#pb43f8d9b8b)" style="fill: none; stroke: #b0b0b0; stroke-width: 0.8; stroke-linecap: square"/>
     </g>
     <g id="line2d_6">
      <g>
       <use xlink:href="#mde0f22149e" x="150.0589" y="303.64" style="stroke: #000000; stroke-width: 0.8"/>
      </g>
     </g>
     <g id="text_3">
      <!-- −2.5 -->
      <g transform="translate(137.917494 318.238437) scale(0.1 -0.1)">
       <defs>
        <path id="DejaVuSans-32" d="M 1228 531 
L 3431 531 
L 3431 0 
L 469 0 
L 469 531 
Q 828 903 1448 1529 
Q 2069 2156 2228 2338 
Q 2531 2678 2651 2914 
Q 2772 3150 2772 3378 
Q 2772 3750 2511 3984 
Q 2250 4219 1831 4219 
Q 1534 4219 1204 4116 
Q 875 4013 500 3803 
L 500 4441 
Q 881 4594 1212 4672 
Q 1544 4750 1819 4750 
Q 2544 4750 2975 4387 
Q 3406 4025 3406 3419 
Q 3406 3131 3298 2873 
Q 3191 2616 2906 2266 
Q 2828 2175 2409 1742 
Q 1991 1309 1228 531 
z
" transform="scale(0.015625)"/>
       </defs>
       <use xlink:href="#DejaVuSans-2212"/>
       <use xlink:href="#DejaVuSans-32" x="83.789062"/>
       <use xlink:href="#DejaVuSans-2e" x="147.412109"/>
       <use xlink:href="#DejaVuSans-35" x="179.199219"/>
      </g>
     </g>
    </g>
    <g id="xtick_4">
     <g id="line2d_7">
      <path d="M 197.1084 303.64 
L 197.1084 26.88 
" clip-path="url(#pb43f8d9b8b)" style="fill: none; stroke: #b0b0b0; stroke-width: 0.8; stroke-linecap: square"/>
     </g>
     <g id="line2d_8">
      <g>
       <use xlink:href="#mde0f22149e" x="197.1084" y="303.64" style="stroke: #000000; stroke-width: 0.8"/>
      </g>
     </g>
     <g id="text_4">
      <!-- 0.0 -->
      <g transform="translate(189.156837 318.238437) scale(0.1 -0.1)">
       <use xlink:href="#DejaVuSans-30"/>
       <use xlink:href="#DejaVuSans-2e" x="63.623047"/>
       <use xlink:href="#DejaVuSans-30" x="95.410156"/>
      </g>
     </g>
    </g>
    <g id="xtick_5">
     <g id="line2d_9">
      <path d="M 244.1579 303.64 
L 244.1579 26.88 
" clip-path="url(#pb43f8d9b8b)" style="fill: none; stroke: #b0b0b0; stroke-width: 0.8; stroke-linecap: square"/>
     </g>
     <g id="line2d_10">
      <g>
       <use xlink:href="#mde0f22149e" x="244.1579" y="303.64" style="stroke: #000000; stroke-width: 0.8"/>
      </g>
     </g>
     <g id="text_5">
      <!-- 2.5 -->
      <g transform="translate(236.206337 318.238437) scale(0.1 -0.1)">
       <use xlink:href="#DejaVuSans-32"/>
       <use xlink:href="#DejaVuSans-2e" x="63.623047"/>
       <use xlink:href="#DejaVuSans-35" x="95.410156"/>
      </g>
     </g>
    </g>
    <g id="xtick_6">
     <g id="line2d_11">
      <path d="M 291.2074 303.64 
L 291.2074 26.88 
" clip-path="url(#pb43f8d9b8b)" style="fill: none; stroke: #b0b0b0; stroke-width: 0.8; stroke-linecap: square"/>
     </g>
     <g id="line2d_12">
      <g>
       <use xlink:href="#mde0f22149e" x="291.2074" y="303.64" style="stroke: #000000; stroke-width: 0.8"/>
      </g>
     </g>
     <g id="text_6">
      <!-- 5.0 -->
      <g transform="translate(283.255837 318.238437) scale(0.1 -0.1)">
       <use xlink:href="#DejaVuSans-35"/>
       <use xlink:href="#DejaVuSans-2e" x="63.623047"/>
       <use xlink:href="#DejaVuSans-30" x="95.410156"/>
      </g>
     </g>
    </g>
    <g id="xtick_7">
     <g id="line2d_13">
      <path d="M 338.2569 303.64 
L 338.2569 26.88 
" clip-path="url(#pb43f8d9b8b)" style="fill: none; stroke: #b0b0b0; stroke-width: 0.8; stroke-linecap: square"/>
     </g>
     <g id="line2d_14">
      <g>
       <use xlink:href="#mde0f22149e" x="338.2569" y="303.64" style="stroke: #000000; stroke-width: 0.8"/>
      </g>
     </g>
     <g id="text_7">
      <!-- 7.5 -->
      <g transform="translate(330.305337 318.238437) scale(0.1 -0.1)">
       <use xlink:href="#DejaVuSans-37"/>
       <use xlink:href="#DejaVuSans-2e" x="63.623047"/>
       <use xlink:href="#DejaVuSans-35" x="95.410156"/>
      </g>
     </g>
    </g>
    <g id="xtick_8">
     <g id="line2d_15">
      <path d="M 385.3064 303.64 
L 385.3064 26.88 
" clip-path="url(#pb43f8d9b8b)" style="fill: none; stroke: #b0b0b0; stroke-width: 0.8; stroke-linecap: square"/>
     </g>
     <g id="line2d_16">
      <g>
       <use xlink:href="#mde0f22149e" x="385.3064" y="303.64" style="stroke: #000000; stroke-width: 0.8"/>
      </g>
     </g>
     <g id="text_8">
      <!-- 10.0 -->
      <g transform="translate(374.173587 318.238437) scale(0.1 -0.1)">
       <defs>
        <path id="DejaVuSans-31" d="M 794 531 
L 1825 531 
L 1825 4091 
L 703 3866 
L 703 4441 
L 1819 4666 
L 2450 4666 
L 2450 531 
L 3481 531 
L 3481 0 
L 794 0 
L 794 531 
z
" transform="scale(0.015625)"/>
       </defs>
       <use xlink:href="#DejaVuSans-31"/>
       <use xlink:href="#DejaVuSans-30" x="63.623047"/>
       <use xlink:href="#DejaVuSans-2e" x="127.246094"/>
       <use xlink:href="#DejaVuSans-30" x="159.033203"/>
      </g>
     </g>
    </g>
    <g id="text_9">
     <!-- X -->
     <g transform="translate(231.323 331.916562) scale(0.1 -0.1)">
      <defs>
       <path id="DejaVuSans-58" d="M 403 4666 
L 1081 4666 
L 2241 2931 
L 3406 4666 
L 4084 4666 
L 2584 2425 
L 4184 0 
L 3506 0 
L 2194 1984 
L 872 0 
L 191 0 
L 1856 2491 
L 403 4666 
z
" transform="scale(0.015625)"/>
      </defs>
      <use xlink:href="#DejaVuSans-58"/>
     </g>
    </g>
   </g>
   <g id="matplotlib.axis_2">
    <g id="ytick_1">
     <g id="line2d_17">
      <path d="M 46.55 303.64 
L 422.946 303.64 
" clip-path="url(#pb43f8d9b8b)" style="fill: none; stroke: #b0b0b0; stroke-width: 0.8; stroke-linecap: square"/>
     </g>
     <g id="line2d_18">
      <defs>
       <path id="m4121480802" d="M 0 0 
L -3.5 0 
" style="stroke: #000000; stroke-width: 0.8"/>
      </defs>
      <g>
       <use xlink:href="#m4121480802" x="46.55" y="303.64" style="stroke: #000000; stroke-width: 0.8"/>
      </g>
     </g>
     <g id="text_10">
      <!-- −4 -->
      <g transform="translate(24.807813 307.439219) scale(0.1 -0.1)">
       <defs>
        <path id="DejaVuSans-34" d="M 2419 4116 
L 825 1625 
L 2419 1625 
L 2419 4116 
z
M 2253 4666 
L 3047 4666 
L 3047 1625 
L 3713 1625 
L 3713 1100 
L 3047 1100 
L 3047 0 
L 2419 0 
L 2419 1100 
L 313 1100 
L 313 1709 
L 2253 4666 
z
" transform="scale(0.015625)"/>
       </defs>
       <use xlink:href="#DejaVuSans-2212"/>
       <use xlink:href="#DejaVuSans-34" x="83.789062"/>
      </g>
     </g>
    </g>
    <g id="ytick_2">
     <g id="line2d_19">
      <path d="M 46.55 253.32 
L 422.946 253.32 
" clip-path="url(#pb43f8d9b8b)" style="fill: none; stroke: #b0b0b0; stroke-width: 0.8; stroke-linecap: square"/>
     </g>
     <g id="line2d_20">
      <g>
       <use xlink:href="#m4121480802" x="46.55" y="253.32" style="stroke: #000000; stroke-width: 0.8"/>
      </g>
     </g>
     <g id="text_11">
      <!-- −2 -->
      <g transform="translate(24.807813 257.119219) scale(0.1 -0.1)">
       <use xlink:href="#DejaVuSans-2212"/>
       <use xlink:href="#DejaVuSans-32" x="83.789062"/>
      </g>
     </g>
    </g>
    <g id="ytick_3">
     <g id="line2d_21">
      <path d="M 46.55 203 
L 422.946 203 
" clip-path="url(#pb43f8d9b8b)" style="fill: none; stroke: #b0b0b0; stroke-width: 0.8; stroke-linecap: square"/>
     </g>
     <g id="line2d_22">
      <g>
       <use xlink:href="#m4121480802" x="46.55" y="203" style="stroke: #000000; stroke-width: 0.8"/>
      </g>
     </g>
     <g id="text_12">
      <!-- 0 -->
      <g transform="translate(33.1875 206.799219) scale(0.1 -0.1)">
       <use xlink:href="#DejaVuSans-30"/>
      </g>
     </g>
    </g>
    <g id="ytick_4">
     <g id="line2d_23">
      <path d="M 46.55 152.68 
L 422.946 152.68 
" clip-path="url(#pb43f8d9b8b)" style="fill: none; stroke: #b0b0b0; stroke-width: 0.8; stroke-linecap: square"/>
     </g>
     <g id="line2d_24">
      <g>
       <use xlink:href="#m4121480802" x="46.55" y="152.68" style="stroke: #000000; stroke-width: 0.8"/>
      </g>
     </g>
     <g id="text_13">
      <!-- 2 -->
      <g transform="translate(33.1875 156.479219) scale(0.1 -0.1)">
       <use xlink:href="#DejaVuSans-32"/>
      </g>
     </g>
    </g>
    <g id="ytick_5">
     <g id="line2d_25">
      <path d="M 46.55 102.36 
L 422.946 102.36 
" clip-path="url(#pb43f8d9b8b)" style="fill: none; stroke: #b0b0b0; stroke-width: 0.8; stroke-linecap: square"/>
     </g>
     <g id="line2d_26">
      <g>
       <use xlink:href="#m4121480802" x="46.55" y="102.36" style="stroke: #000000; stroke-width: 0.8"/>
      </g>
     </g>
     <g id="text_14">
      <!-- 4 -->
      <g transform="translate(33.1875 106.159219) scale(0.1 -0.1)">
       <use xlink:href="#DejaVuSans-34"/>
      </g>
     </g>
    </g>
    <g id="ytick_6">
     <g id="line2d_27">
      <path d="M 46.55 52.04 
L 422.946 52.04 
" clip-path="url(#pb43f8d9b8b)" style="fill: none; stroke: #b0b0b0; stroke-width: 0.8; stroke-linecap: square"/>
     </g>
     <g id="line2d_28">
      <g>
       <use xlink:href="#m4121480802" x="46.55" y="52.04" style="stroke: #000000; stroke-width: 0.8"/>
      </g>
     </g>
     <g id="text_15">
      <!-- 6 -->
      <g transform="translate(33.1875 55.839219) scale(0.1 -0.1)">
       <defs>
        <path id="DejaVuSans-36" d="M 2113 2584 
Q 1688 2584 1439 2293 
Q 1191 2003 1191 1497 
Q 1191 994 1439 701 
Q 1688 409 2113 409 
Q 2538 409 2786 701 
Q 3034 994 3034 1497 
Q 3034 2003 2786 2293 
Q 2538 2584 2113 2584 
z
M 3366 4563 
L 3366 3988 
Q 3128 4100 2886 4159 
Q 2644 4219 2406 4219 
Q 1781 4219 1451 3797 
Q 1122 3375 1075 2522 
Q 1259 2794 1537 2939 
Q 1816 3084 2150 3084 
Q 2853 3084 3261 2657 
Q 3669 2231 3669 1497 
Q 3669 778 3244 343 
Q 2819 -91 2113 -91 
Q 1303 -91 875 529 
Q 447 1150 447 2328 
Q 447 3434 972 4092 
Q 1497 4750 2381 4750 
Q 2619 4750 2861 4703 
Q 3103 4656 3366 4563 
z
" transform="scale(0.015625)"/>
       </defs>
       <use xlink:href="#DejaVuSans-36"/>
      </g>
     </g>
    </g>
    <g id="text_16">
     <!-- Y -->
     <g transform="translate(18.728125 168.313906) rotate(-90) scale(0.1 -0.1)">
      <defs>
       <path id="DejaVuSans-59" d="M -13 4666 
L 666 4666 
L 1959 2747 
L 3244 4666 
L 3922 4666 
L 2272 2222 
L 2272 0 
L 1638 0 
L 1638 2222 
L -13 4666 
z
" transform="scale(0.015625)"/>
      </defs>
      <use xlink:href="#DejaVuSans-59"/>
     </g>
    </g>
   </g>
   <g id="line2d_29">
    <path d="M 46.55 203 
L 422.946 203 
" clip-path="url(#pb43f8d9b8b)" style="fill: none; stroke: #000000; stroke-width: 1.5; stroke-linecap: square"/>
   </g>
   <g id="line2d_30">
    <path d="M 197.1084 303.64 
L 197.1084 26.88 
" clip-path="url(#pb43f8d9b8b)" style="fill: none; stroke: #000000; stroke-width: 1.5; stroke-linecap: square"/>
   </g>
   <g id="line2d_31">
    <path d="M 461.8 317.03176 
L -1 7.675443 
" clip-path="url(#pb43f8d9b8b)" style="fill: none; stroke: #1f77b4; stroke-width: 1.5; stroke-linecap: square"/>
   </g>
   <g id="patch_3">
    <path d="M 46.55 303.64 
L 46.55 26.88 
" style="fill: none; stroke: #000000; stroke-width: 0.8; stroke-linejoin: miter; stroke-linecap: square"/>
   </g>
   <g id="patch_4">
    <path d="M 422.946 303.64 
L 422.946 26.88 
" style="fill: none; stroke: #000000; stroke-width: 0.8; stroke-linejoin: miter; stroke-linecap: square"/>
   </g>
   <g id="patch_5">
    <path d="M 46.55 303.64 
L 422.946 303.64 
" style="fill: none; stroke: #000000; stroke-width: 0.8; stroke-linejoin: miter; stroke-linecap: square"/>
   </g>
   <g id="patch_6">
    <path d="M 46.55 26.88 
L 422.946 26.88 
" style="fill: none; stroke: #000000; stroke-width: 0.8; stroke-linejoin: miter; stroke-linecap: square"/>
   </g>
   <g id="text_17">
    <!-- X -->
    <g transform="translate(422.946 203) scale(0.1 -0.1)">
     <use xlink:href="#DejaVuSans-58"/>
    </g>
   </g>
   <g id="text_18">
    <!-- Y -->
    <g transform="translate(197.1084 26.88) scale(0.1 -0.1)">
     <use xlink:href="#DejaVuSans-59"/>
    </g>
   </g>
   <g id="text_19">
    <!-- v(1, 2) -->
    <g style="fill: #0000ff" transform="translate(215.9282 152.68) scale(0.1 -0.1)">
     <defs>
      <path id="DejaVuSans-76" d="M 191 3500 
L 800 3500 
L 1894 563 
L 2988 3500 
L 3597 3500 
L 2284 0 
L 1503 0 
L 191 3500 
z
" transform="scale(0.015625)"/>
      <path id="DejaVuSans-28" d="M 1984 4856 
Q 1566 4138 1362 3434 
Q 1159 2731 1159 2009 
Q 1159 1288 1364 580 
Q 1569 -128 1984 -844 
L 1484 -844 
Q 1016 -109 783 600 
Q 550 1309 550 2009 
Q 550 2706 781 3412 
Q 1013 4119 1484 4856 
L 1984 4856 
z
" transform="scale(0.015625)"/>
      <path id="DejaVuSans-2c" d="M 750 794 
L 1409 794 
L 1409 256 
L 897 -744 
L 494 -744 
L 750 256 
L 750 794 
z
" transform="scale(0.015625)"/>
      <path id="DejaVuSans-20" transform="scale(0.015625)"/>
      <path id="DejaVuSans-29" d="M 513 4856 
L 1013 4856 
Q 1481 4119 1714 3412 
Q 1947 2706 1947 2009 
Q 1947 1309 1714 600 
Q 1481 -109 1013 -844 
L 513 -844 
Q 928 -128 1133 580 
Q 1338 1288 1338 2009 
Q 1338 2731 1133 3434 
Q 928 4138 513 4856 
z
" transform="scale(0.015625)"/>
     </defs>
     <use xlink:href="#DejaVuSans-76"/>
     <use xlink:href="#DejaVuSans-28" x="59.179688"/>
     <use xlink:href="#DejaVuSans-31" x="98.193359"/>
     <use xlink:href="#DejaVuSans-2c" x="161.816406"/>
     <use xlink:href="#DejaVuSans-20" x="193.603516"/>
     <use xlink:href="#DejaVuSans-32" x="225.390625"/>
     <use xlink:href="#DejaVuSans-29" x="289.013672"/>
    </g>
   </g>
   <g id="text_20">
    <!-- w(11, -3) -->
    <g style="fill: #0000ff" transform="translate(404.1262 278.48) scale(0.1 -0.1)">
     <defs>
      <path id="DejaVuSans-77" d="M 269 3500 
L 844 3500 
L 1563 769 
L 2278 3500 
L 2956 3500 
L 3675 769 
L 4391 3500 
L 4966 3500 
L 4050 0 
L 3372 0 
L 2619 2869 
L 1863 0 
L 1184 0 
L 269 3500 
z
" transform="scale(0.015625)"/>
      <path id="DejaVuSans-2d" d="M 313 2009 
L 1997 2009 
L 1997 1497 
L 313 1497 
L 313 2009 
z
" transform="scale(0.015625)"/>
      <path id="DejaVuSans-33" d="M 2597 2516 
Q 3050 2419 3304 2112 
Q 3559 1806 3559 1356 
Q 3559 666 3084 287 
Q 2609 -91 1734 -91 
Q 1441 -91 1130 -33 
Q 819 25 488 141 
L 488 750 
Q 750 597 1062 519 
Q 1375 441 1716 441 
Q 2309 441 2620 675 
Q 2931 909 2931 1356 
Q 2931 1769 2642 2001 
Q 2353 2234 1838 2234 
L 1294 2234 
L 1294 2753 
L 1863 2753 
Q 2328 2753 2575 2939 
Q 2822 3125 2822 3475 
Q 2822 3834 2567 4026 
Q 2313 4219 1838 4219 
Q 1578 4219 1281 4162 
Q 984 4106 628 3988 
L 628 4550 
Q 988 4650 1302 4700 
Q 1616 4750 1894 4750 
Q 2613 4750 3031 4423 
Q 3450 4097 3450 3541 
Q 3450 3153 3228 2886 
Q 3006 2619 2597 2516 
z
" transform="scale(0.015625)"/>
     </defs>
     <use xlink:href="#DejaVuSans-77"/>
     <use xlink:href="#DejaVuSans-28" x="81.787109"/>
     <use xlink:href="#DejaVuSans-31" x="120.800781"/>
     <use xlink:href="#DejaVuSans-31" x="184.423828"/>
     <use xlink:href="#DejaVuSans-2c" x="248.046875"/>
     <use xlink:href="#DejaVuSans-20" x="279.833984"/>
     <use xlink:href="#DejaVuSans-2d" x="311.621094"/>
     <use xlink:href="#DejaVuSans-33" x="347.705078"/>
     <use xlink:href="#DejaVuSans-29" x="411.328125"/>
    </g>
   </g>
   <g id="text_21">
    <!-- w(9, -2) -->
    <g style="fill: #0000ff" transform="translate(366.4866 253.32) scale(0.1 -0.1)">
     <defs>
      <path id="DejaVuSans-39" d="M 703 97 
L 703 672 
Q 941 559 1184 500 
Q 1428 441 1663 441 
Q 2288 441 2617 861 
Q 2947 1281 2994 2138 
Q 2813 1869 2534 1725 
Q 2256 1581 1919 1581 
Q 1219 1581 811 2004 
Q 403 2428 403 3163 
Q 403 3881 828 4315 
Q 1253 4750 1959 4750 
Q 2769 4750 3195 4129 
Q 3622 3509 3622 2328 
Q 3622 1225 3098 567 
Q 2575 -91 1691 -91 
Q 1453 -91 1209 -44 
Q 966 3 703 97 
z
M 1959 2075 
Q 2384 2075 2632 2365 
Q 2881 2656 2881 3163 
Q 2881 3666 2632 3958 
Q 2384 4250 1959 4250 
Q 1534 4250 1286 3958 
Q 1038 3666 1038 3163 
Q 1038 2656 1286 2365 
Q 1534 2075 1959 2075 
z
" transform="scale(0.015625)"/>
     </defs>
     <use xlink:href="#DejaVuSans-77"/>
     <use xlink:href="#DejaVuSans-28" x="81.787109"/>
     <use xlink:href="#DejaVuSans-39" x="120.800781"/>
     <use xlink:href="#DejaVuSans-2c" x="184.423828"/>
     <use xlink:href="#DejaVuSans-20" x="216.210938"/>
     <use xlink:href="#DejaVuSans-2d" x="247.998047"/>
     <use xlink:href="#DejaVuSans-32" x="284.082031"/>
     <use xlink:href="#DejaVuSans-29" x="347.705078"/>
    </g>
   </g>
   <g id="text_22">
    <!-- w(7, -1) -->
    <g style="fill: #0000ff" transform="translate(328.847 228.16) scale(0.1 -0.1)">
     <use xlink:href="#DejaVuSans-77"/>
     <use xlink:href="#DejaVuSans-28" x="81.787109"/>
     <use xlink:href="#DejaVuSans-37" x="120.800781"/>
     <use xlink:href="#DejaVuSans-2c" x="184.423828"/>
     <use xlink:href="#DejaVuSans-20" x="216.210938"/>
     <use xlink:href="#DejaVuSans-2d" x="247.998047"/>
     <use xlink:href="#DejaVuSans-31" x="284.082031"/>
     <use xlink:href="#DejaVuSans-29" x="347.705078"/>
    </g>
   </g>
   <g id="text_23">
    <!-- w(5, 0) -->
    <g style="fill: #0000ff" transform="translate(291.2074 203) scale(0.1 -0.1)">
     <use xlink:href="#DejaVuSans-77"/>
     <use xlink:href="#DejaVuSans-28" x="81.787109"/>
     <use xlink:href="#DejaVuSans-35" x="120.800781"/>
     <use xlink:href="#DejaVuSans-2c" x="184.423828"/>
     <use xlink:href="#DejaVuSans-20" x="216.210938"/>
     <use xlink:href="#DejaVuSans-30" x="247.998047"/>
     <use xlink:href="#DejaVuSans-29" x="311.621094"/>
    </g>
   </g>
   <g id="text_24">
    <!-- w(3, 1) -->
    <g style="fill: #0000ff" transform="translate(253.5678 177.84) scale(0.1 -0.1)">
     <use xlink:href="#DejaVuSans-77"/>
     <use xlink:href="#DejaVuSans-28" x="81.787109"/>
     <use xlink:href="#DejaVuSans-33" x="120.800781"/>
     <use xlink:href="#DejaVuSans-2c" x="184.423828"/>
     <use xlink:href="#DejaVuSans-20" x="216.210938"/>
     <use xlink:href="#DejaVuSans-31" x="247.998047"/>
     <use xlink:href="#DejaVuSans-29" x="311.621094"/>
    </g>
   </g>
   <g id="text_25">
    <!-- w(1, 2) -->
    <g style="fill: #0000ff" transform="translate(215.9282 152.68) scale(0.1 -0.1)">
     <use xlink:href="#DejaVuSans-77"/>
     <use xlink:href="#DejaVuSans-28" x="81.787109"/>
     <use xlink:href="#DejaVuSans-31" x="120.800781"/>
     <use xlink:href="#DejaVuSans-2c" x="184.423828"/>
     <use xlink:href="#DejaVuSans-20" x="216.210938"/>
     <use xlink:href="#DejaVuSans-32" x="247.998047"/>
     <use xlink:href="#DejaVuSans-29" x="311.621094"/>
    </g>
   </g>
   <g id="text_26">
    <!-- w(-1, 3) -->
    <g style="fill: #0000ff" transform="translate(178.2886 127.52) scale(0.1 -0.1)">
     <use xlink:href="#DejaVuSans-77"/>
     <use xlink:href="#DejaVuSans-28" x="81.787109"/>
     <use xlink:href="#DejaVuSans-2d" x="120.800781"/>
     <use xlink:href="#DejaVuSans-31" x="156.884766"/>
     <use xlink:href="#DejaVuSans-2c" x="220.507812"/>
     <use xlink:href="#DejaVuSans-20" x="252.294922"/>
     <use xlink:href="#DejaVuSans-33" x="284.082031"/>
     <use xlink:href="#DejaVuSans-29" x="347.705078"/>
    </g>
   </g>
   <g id="text_27">
    <!-- w(-3, 4) -->
    <g style="fill: #0000ff" transform="translate(140.649 102.36) scale(0.1 -0.1)">
     <use xlink:href="#DejaVuSans-77"/>
     <use xlink:href="#DejaVuSans-28" x="81.787109"/>
     <use xlink:href="#DejaVuSans-2d" x="120.800781"/>
     <use xlink:href="#DejaVuSans-33" x="156.884766"/>
     <use xlink:href="#DejaVuSans-2c" x="220.507812"/>
     <use xlink:href="#DejaVuSans-20" x="252.294922"/>
     <use xlink:href="#DejaVuSans-34" x="284.082031"/>
     <use xlink:href="#DejaVuSans-29" x="347.705078"/>
    </g>
   </g>
   <g id="text_28">
    <!-- w(-5, 5) -->
    <g style="fill: #0000ff" transform="translate(103.0094 77.2) scale(0.1 -0.1)">
     <use xlink:href="#DejaVuSans-77"/>
     <use xlink:href="#DejaVuSans-28" x="81.787109"/>
     <use xlink:href="#DejaVuSans-2d" x="120.800781"/>
     <use xlink:href="#DejaVuSans-35" x="156.884766"/>
     <use xlink:href="#DejaVuSans-2c" x="220.507812"/>
     <use xlink:href="#DejaVuSans-20" x="252.294922"/>
     <use xlink:href="#DejaVuSans-35" x="284.082031"/>
     <use xlink:href="#DejaVuSans-29" x="347.705078"/>
    </g>
   </g>
   <g id="text_29">
    <!-- w(-7, 6) -->
    <g style="fill: #0000ff" transform="translate(65.3698 52.04) scale(0.1 -0.1)">
     <use xlink:href="#DejaVuSans-77"/>
     <use xlink:href="#DejaVuSans-28" x="81.787109"/>
     <use xlink:href="#DejaVuSans-2d" x="120.800781"/>
     <use xlink:href="#DejaVuSans-37" x="156.884766"/>
     <use xlink:href="#DejaVuSans-2c" x="220.507812"/>
     <use xlink:href="#DejaVuSans-20" x="252.294922"/>
     <use xlink:href="#DejaVuSans-36" x="284.082031"/>
     <use xlink:href="#DejaVuSans-29" x="347.705078"/>
    </g>
   </g>
   <g id="text_30">
    <!-- 2D Plot -->
    <g transform="translate(213.0955 20.88) scale(0.12 -0.12)">
     <defs>
      <path id="DejaVuSans-44" d="M 1259 4147 
L 1259 519 
L 2022 519 
Q 2988 519 3436 956 
Q 3884 1394 3884 2338 
Q 3884 3275 3436 3711 
Q 2988 4147 2022 4147 
L 1259 4147 
z
M 628 4666 
L 1925 4666 
Q 3281 4666 3915 4102 
Q 4550 3538 4550 2338 
Q 4550 1131 3912 565 
Q 3275 0 1925 0 
L 628 0 
L 628 4666 
z
" transform="scale(0.015625)"/>
      <path id="DejaVuSans-50" d="M 1259 4147 
L 1259 2394 
L 2053 2394 
Q 2494 2394 2734 2622 
Q 2975 2850 2975 3272 
Q 2975 3691 2734 3919 
Q 2494 4147 2053 4147 
L 1259 4147 
z
M 628 4666 
L 2053 4666 
Q 2838 4666 3239 4311 
Q 3641 3956 3641 3272 
Q 3641 2581 3239 2228 
Q 2838 1875 2053 1875 
L 1259 1875 
L 1259 0 
L 628 0 
L 628 4666 
z
" transform="scale(0.015625)"/>
      <path id="DejaVuSans-6c" d="M 603 4863 
L 1178 4863 
L 1178 0 
L 603 0 
L 603 4863 
z
" transform="scale(0.015625)"/>
      <path id="DejaVuSans-6f" d="M 1959 3097 
Q 1497 3097 1228 2736 
Q 959 2375 959 1747 
Q 959 1119 1226 758 
Q 1494 397 1959 397 
Q 2419 397 2687 759 
Q 2956 1122 2956 1747 
Q 2956 2369 2687 2733 
Q 2419 3097 1959 3097 
z
M 1959 3584 
Q 2709 3584 3137 3096 
Q 3566 2609 3566 1747 
Q 3566 888 3137 398 
Q 2709 -91 1959 -91 
Q 1206 -91 779 398 
Q 353 888 353 1747 
Q 353 2609 779 3096 
Q 1206 3584 1959 3584 
z
" transform="scale(0.015625)"/>
      <path id="DejaVuSans-74" d="M 1172 4494 
L 1172 3500 
L 2356 3500 
L 2356 3053 
L 1172 3053 
L 1172 1153 
Q 1172 725 1289 603 
Q 1406 481 1766 481 
L 2356 481 
L 2356 0 
L 1766 0 
Q 1100 0 847 248 
Q 594 497 594 1153 
L 594 3053 
L 172 3053 
L 172 3500 
L 594 3500 
L 594 4494 
L 1172 4494 
z
" transform="scale(0.015625)"/>
     </defs>
     <use xlink:href="#DejaVuSans-32"/>
     <use xlink:href="#DejaVuSans-44" x="63.623047"/>
     <use xlink:href="#DejaVuSans-20" x="140.625"/>
     <use xlink:href="#DejaVuSans-50" x="172.412109"/>
     <use xlink:href="#DejaVuSans-6c" x="232.714844"/>
     <use xlink:href="#DejaVuSans-6f" x="260.498047"/>
     <use xlink:href="#DejaVuSans-74" x="321.679688"/>
    </g>
   </g>
  </g>
 </g>
 <defs>
  <clipPath id="pb43f8d9b8b">
   <rect x="46.55" y="26.88" width="376.396" height="276.76"/>
  </clipPath>
 </defs>
</svg>
